<svg xmlns="http://www.w3.org/2000/svg" width="578" height="581" viewBox="0 0 578 581">
<g>
<path d="M 389.75 516.84 C374.50,523.77 361.84,528.60 359.89,528.22 C359.00,528.05 357.76,526.76 357.12,525.36 C354.92,520.53 350.61,515.80 341.43,508.16 C319.27,489.69 283.68,473.38 250.50,466.51 C239.80,464.29 224.51,462.01 220.09,461.96 C218.11,461.95 215.39,461.32 214.04,460.57 C212.55,459.74 210.78,459.51 209.54,459.98 C208.42,460.40 202.10,461.04 195.50,461.40 C176.83,462.42 167.33,464.36 152.13,470.23 C145.72,472.70 142.60,474.61 138.81,478.38 L 133.86 483.30 L 128.68 478.22 C123.76,473.39 123.12,473.08 116.00,472.09 C100.78,469.97 98.00,468.23 98.00,460.82 C98.00,456.53 98.47,455.44 102.04,451.57 C107.86,445.25 122.61,436.98 139.73,430.41 C143.45,428.98 147.40,427.46 148.50,427.01 C149.60,426.57 154.32,425.05 159.00,423.64 C166.64,421.33 171.83,419.95 184.50,416.88 C191.82,415.10 195.43,414.18 203.50,412.00 C207.90,410.82 213.30,409.44 215.50,408.94 C217.70,408.44 221.30,407.54 223.50,406.95 C229.92,405.21 238.44,403.18 253.00,399.91 C255.48,399.36 259.30,398.44 261.50,397.88 C263.70,397.32 267.08,396.64 269.00,396.37 C270.92,396.10 273.40,395.49 274.50,395.01 C276.84,394.00 281.00,393.05 286.26,392.31 C288.32,392.03 290.26,391.39 290.57,390.89 C290.87,390.40 292.42,390.00 294.01,390.00 C295.60,390.00 297.94,389.60 299.20,389.11 C300.47,388.62 303.98,387.71 307.00,387.07 C310.02,386.44 314.08,385.53 316.00,385.07 C317.92,384.60 324.67,383.02 331.00,381.57 C343.67,378.65 348.95,377.34 353.57,375.93 C355.26,375.42 357.82,375.00 359.26,375.00 C360.70,375.00 362.13,374.60 362.43,374.11 C362.73,373.62 364.45,372.99 366.24,372.70 C368.03,372.42 371.30,371.66 373.50,371.03 C377.24,369.94 379.03,369.48 388.75,367.07 C403.94,363.31 409.76,361.77 411.50,361.07 C412.60,360.63 421.15,357.63 430.50,354.41 L 447.50 348.57 L 471.93 348.30 C485.36,348.16 496.72,347.68 497.17,347.23 C497.62,346.78 498.27,344.33 498.62,341.78 C499.14,338.00 498.84,336.47 497.00,333.50 C495.75,331.47 495.14,329.50 495.62,329.06 C496.11,328.62 500.55,325.55 505.50,322.24 C510.45,318.92 515.42,315.38 516.53,314.36 C517.65,313.33 520.90,310.57 523.76,308.21 L 528.94 303.93 L 529.63 306.68 C530.01,308.19 529.81,314.40 529.17,320.48 C524.31,367.12 509.98,404.42 482.73,441.33 C475.58,451.02 464.42,463.00 462.55,463.00 C461.94,463.00 459.90,461.37 458.02,459.37 C454.09,455.20 442.28,446.18 436.72,443.10 C430.15,439.45 428.09,440.11 420.90,448.16 C414.60,455.21 411.02,459.90 411.01,461.12 C411.00,461.46 415.61,464.72 421.25,468.36 C432.70,475.75 440.00,481.92 440.00,484.23 C440.00,485.07 439.33,486.32 438.50,487.00 C435.58,489.42 436.75,491.00 441.46,491.00 C446.80,491.00 448.27,492.91 447.81,499.25 C447.54,502.84 446.95,503.79 443.54,506.10 C441.36,507.57 437.09,509.32 434.04,509.97 C430.99,510.63 426.70,511.59 424.50,512.11 C419.36,513.33 413.94,513.45 406.75,512.49 C401.24,511.75 400.55,511.93 389.75,516.84 ZM 59.24 282.56 C56.63,284.63 52.76,287.94 50.62,289.92 L 46.75 293.50 L 47.38 284.00 C50.09,243.49 60.87,209.17 82.32,172.75 C91.39,157.36 110.42,133.00 113.38,133.00 C114.03,133.00 117.03,135.49 120.03,138.54 C127.50,146.11 142.39,156.00 146.33,156.00 C147.12,156.00 149.49,153.86 151.61,151.25 C153.74,148.64 157.44,144.37 159.85,141.77 C162.26,139.17 164.01,136.47 163.74,135.76 C163.46,135.05 161.95,133.81 160.37,133.01 C154.64,130.10 145.92,123.84 140.27,118.57 L 134.50 113.19 L 136.76 110.77 C139.32,108.03 138.85,107.00 135.06,107.00 C133.62,107.00 131.44,106.30 130.22,105.44 C127.07,103.23 127.08,95.95 130.25,92.93 C136.03,87.41 148.89,84.45 163.29,85.32 L 173.47 85.94 L 182.98 81.12 C195.29,74.89 213.60,67.64 214.95,68.47 C215.53,68.83 216.00,69.57 216.00,70.13 C216.00,71.90 222.16,80.36 226.41,84.42 C253.70,110.53 309.51,131.59 359.11,134.49 C378.15,135.61 401.66,132.73 418.00,127.28 C428.05,123.94 431.69,121.98 437.55,116.76 C443.12,111.82 444.13,111.90 450.33,117.76 C454.28,121.50 457.15,123.00 460.36,123.00 C465.95,123.00 473.31,125.47 476.12,128.28 C479.95,132.11 480.08,137.72 476.44,142.49 C472.58,147.56 454.15,158.60 440.00,164.33 C437.52,165.34 434.60,166.54 433.50,167.01 C432.40,167.48 428.58,168.83 425.00,170.00 C421.42,171.17 417.60,172.50 416.50,172.95 C415.40,173.40 412.70,174.24 410.50,174.82 C408.30,175.39 404.02,176.55 401.00,177.40 C397.98,178.25 391.90,179.89 387.50,181.05 C383.10,182.20 377.02,183.83 374.00,184.67 C370.98,185.51 366.92,186.58 365.00,187.05 C356.79,189.06 352.78,190.06 349.25,190.95 C347.19,191.47 343.48,192.37 341.00,192.94 C338.52,193.51 334.70,194.47 332.50,195.07 C330.30,195.67 326.48,196.51 324.00,196.94 C321.52,197.36 314.33,198.96 308.00,200.48 C301.67,202.01 294.92,203.63 293.00,204.08 C285.34,205.89 281.22,206.89 275.00,208.45 C271.42,209.35 266.92,210.48 265.00,210.96 C256.47,213.10 252.29,214.20 249.43,215.07 C247.74,215.58 245.45,216.00 244.34,216.00 C243.23,216.00 235.16,217.85 226.41,220.10 C217.66,222.36 208.70,224.60 206.50,225.09 C204.30,225.57 200.93,226.40 199.00,226.93 C197.07,227.46 193.93,228.31 192.00,228.82 C190.07,229.33 186.48,230.48 184.00,231.36 C181.52,232.25 178.51,232.98 177.31,232.99 C176.10,232.99 174.87,233.40 174.57,233.88 C174.27,234.37 172.78,234.99 171.26,235.25 C169.74,235.52 163.10,237.24 156.50,239.08 L 144.50 242.42 L 112.52 242.78 C92.04,243.00 80.09,243.51 79.27,244.19 C78.47,244.85 78.00,247.76 78.00,252.06 L 78.00 258.87 L 82.00 261.12 C84.20,262.36 86.00,263.76 86.00,264.23 C86.00,264.70 84.61,265.86 82.90,266.80 C77.39,269.83 64.10,278.68 59.24,282.56 ZM 94.21 410.00 C93.80,410.00 91.16,412.02 88.34,414.48 C84.48,417.86 82.97,418.66 82.22,417.73 C80.74,415.89 70.58,395.31 68.04,389.00 C63.12,376.77 63.58,377.33 55.51,373.60 C49.01,370.60 47.72,369.57 46.36,366.33 C44.34,361.50 44.96,354.01 47.89,347.89 C50.41,342.61 60.71,332.04 69.50,325.72 C78.77,319.04 87.87,313.80 88.99,314.49 C89.55,314.84 90.00,317.54 90.00,320.50 C90.00,324.93 89.61,326.16 87.78,327.44 C86.56,328.30 84.62,329.00 83.47,329.00 C82.32,329.00 80.54,329.61 79.52,330.36 C77.83,331.59 77.75,332.46 78.58,339.60 C79.36,346.31 79.80,347.54 81.50,347.85 C82.60,348.04 84.29,348.90 85.25,349.76 C86.83,351.16 87.17,351.15 88.82,349.67 C90.42,348.21 95.02,347.99 128.52,347.76 L 166.42 347.50 L 167.21 344.00 C167.64,342.08 168.30,334.95 168.66,328.16 L 168.68 327.76 C169.10,319.75 169.28,316.42 167.72,315.02 C166.61,314.03 164.61,314.02 161.19,314.02 L 160.95 314.02 C155.79,314.00 155.14,314.28 151.50,318.00 C149.35,320.20 146.80,322.00 145.82,322.00 C144.84,322.00 143.30,323.14 142.39,324.53 C140.77,327.00 140.47,327.06 130.61,326.78 L 120.50 326.50 L 120.50 306.50 L 124.50 306.61 C126.70,306.67 133.64,307.24 139.93,307.88 C146.22,308.52 151.70,308.69 152.13,308.27 C152.55,307.85 152.97,303.16 153.07,297.86 C153.17,292.55 153.54,287.74 153.90,287.17 C155.13,285.17 182.07,275.76 183.27,276.90 C183.69,277.31 183.92,288.84 183.77,302.54 L 183.50 327.44 L 179.00 329.02 L 174.50 330.61 L 174.71 337.98 C174.83,342.04 175.16,345.96 175.44,346.70 C175.85,347.77 180.79,347.98 200.73,347.77 L 225.50 347.50 L 225.79 340.23 C226.09,332.99 226.07,332.95 222.95,331.23 C215.13,326.93 215.00,326.70 215.00,316.93 C215.00,312.02 215.37,308.00 215.83,308.00 C216.28,308.00 220.63,313.29 225.49,319.75 C230.35,326.21 237.20,335.21 240.72,339.75 L 247.11 348.00 L 262.43 348.00 C273.64,348.00 278.04,347.66 278.81,346.72 C280.00,345.29 279.79,341.18 278.41,338.87 C277.64,337.58 263.48,319.21 247.25,298.44 C244.91,295.44 243.00,292.50 243.00,291.89 C243.00,291.27 248.99,284.41 256.31,276.64 C263.63,268.86 270.87,261.15 272.41,259.50 C273.94,257.85 275.85,255.01 276.64,253.18 C278.73,248.37 281.41,249.22 281.81,254.82 C282.09,258.72 282.54,259.37 286.60,261.81 C289.06,263.29 291.30,265.40 291.57,266.50 C291.84,267.60 291.93,281.55 291.78,297.50 L 291.50 326.50 L 286.61 328.83 L 281.72 331.17 L 282.36 338.79 C282.72,342.98 283.48,346.88 284.06,347.45 C284.70,348.10 289.87,348.40 297.55,348.24 C305.31,348.07 310.00,348.35 310.00,348.97 C310.00,349.51 308.76,350.22 307.25,350.53 C304.63,351.07 302.61,351.56 293.50,353.83 L 285.50 355.83 C283.30,356.38 279.70,357.30 277.50,357.87 C275.30,358.44 272.15,359.17 270.50,359.50 C268.85,359.82 265.92,360.48 264.00,360.95 C262.08,361.43 256.90,362.58 252.50,363.52 C248.10,364.45 242.93,365.59 241.00,366.06 C239.07,366.52 235.25,367.42 232.50,368.05 C229.75,368.68 225.70,369.63 223.50,370.15 C221.30,370.68 217.70,371.51 215.50,372.00 C213.30,372.49 209.70,373.34 207.50,373.90 C205.30,374.45 201.25,375.42 198.50,376.05 C188.15,378.42 186.16,378.92 172.50,382.50 C155.96,386.83 156.26,386.75 138.00,392.07 C133.88,393.27 129.03,394.47 127.24,394.74 C125.45,395.00 123.73,395.62 123.43,396.11 C123.13,396.60 122.08,397.00 121.09,397.00 C120.11,397.00 118.00,397.63 116.40,398.39 C114.81,399.16 111.70,400.59 109.50,401.58 C107.30,402.56 103.13,404.86 100.23,406.68 C97.33,408.51 94.62,410.00 94.21,410.00 ZM 389.87 327.41 C386.03,328.83 382.32,330.00 381.63,330.00 C380.06,330.00 376.78,326.48 370.05,317.57 L 364.82 310.64 L 367.07 308.95 C368.49,307.88 369.08,306.66 368.69,305.63 C367.87,303.50 365.35,303.54 364.15,305.70 C363.32,307.18 362.97,307.22 361.50,306.00 C358.84,303.79 351.00,293.29 351.00,291.93 C351.00,291.26 356.32,285.04 362.83,278.11 C369.33,271.17 376.76,263.25 379.34,260.50 C383.67,255.87 384.00,255.14 383.83,250.72 C383.49,242.03 383.41,242.00 363.47,242.00 C346.48,242.00 346.01,242.06 344.64,244.25 C342.17,248.22 341.91,253.62 344.07,256.36 C345.13,257.71 345.99,259.64 345.99,260.66 C345.98,261.67 340.83,267.90 334.54,274.50 L 323.10 286.50 L 323.05 275.23 L 323.00 263.96 L 325.75 262.89 C333.43,259.91 333.48,259.85 333.79,253.39 C333.95,250.07 333.63,246.15 333.07,244.68 C332.11,242.16 331.68,242.00 325.58,242.00 C322.03,242.00 318.85,241.57 318.53,241.05 C317.89,240.02 318.56,239.81 339.50,234.45 C347.20,232.48 358.67,229.32 365.00,227.43 C371.33,225.54 385.27,221.49 396.00,218.43 C406.73,215.37 418.42,212.02 422.00,210.99 C438.06,206.36 469.26,193.81 476.50,189.06 C478.70,187.62 481.76,185.80 483.30,185.03 C484.83,184.25 487.83,182.12 489.96,180.30 C492.14,178.43 494.46,177.24 495.29,177.56 C496.68,178.09 506.34,197.42 511.00,209.00 C514.86,218.61 515.24,219.08 521.47,222.02 C531.83,226.92 534.00,229.80 534.00,238.63 C534.00,247.14 531.53,251.47 520.01,263.13 C511.20,272.06 495.36,283.67 484.13,289.45 C479.74,291.70 479.15,291.05 474.98,279.50 C468.12,260.46 460.77,241.45 459.84,240.32 C459.19,239.52 459.41,238.31 460.50,236.63 C461.78,234.68 461.90,233.68 461.04,232.07 C459.82,229.79 456.09,229.31 454.20,231.20 C452.70,232.70 452.64,236.24 454.09,237.69 C455.91,239.51 453.31,240.30 442.65,241.12 C436.71,241.58 432.17,242.42 431.42,243.20 C430.73,243.91 427.61,250.80 424.49,258.50 C421.38,266.20 415.89,279.48 412.30,288.00 C408.72,296.52 404.44,306.88 402.81,311.00 C397.31,324.88 397.56,324.56 389.87,327.41 ZM 379.50 105.06 C371.02,106.49 348.89,107.15 346.50,106.06 C345.40,105.55 342.70,105.11 340.50,105.07 C330.53,104.90 297.70,95.14 283.13,88.01 C274.59,83.83 263.61,76.96 258.84,72.81 C255.94,70.29 249.00,61.31 249.00,60.08 C249.00,58.51 268.58,57.00 288.69,57.02 C328.01,57.05 357.57,63.54 392.86,79.90 C407.37,86.62 408.45,86.96 412.08,85.98 C419.90,83.87 424.07,87.77 418.25,91.74 C414.56,94.25 401.65,100.04 397.14,101.20 C389.42,103.18 385.29,104.09 379.50,105.06 ZM 306.50 538.94 C283.40,541.64 251.33,538.07 221.50,529.45 C204.41,524.52 203.38,524.13 185.00,515.49 C171.59,509.18 171.47,509.15 166.45,510.23 C158.26,511.99 152.77,509.39 156.13,505.35 C157.77,503.36 171.38,496.88 179.50,494.22 C189.45,490.95 202.04,489.00 213.19,489.00 C220.84,489.00 223.89,489.34 241.50,492.15 C249.75,493.47 274.94,501.66 285.38,506.41 C294.01,510.35 309.44,520.51 314.57,525.63 C317.97,529.03 321.99,534.72 322.00,536.14 C322.00,536.87 318.01,537.59 306.50,538.94 ZM 342.32 341.41 C338.04,342.86 335.15,343.39 334.90,342.75 C334.85,342.61 334.71,340.52 334.59,338.09 C334.38,333.51 334.20,333.29 327.00,328.67 L 323.50 326.43 L 323.21 317.21 C323.05,312.15 323.31,308.00 323.77,308.00 C324.23,308.00 326.84,311.04 329.55,314.75 C332.27,318.46 335.04,322.17 335.71,323.00 C339.74,327.98 347.00,338.23 347.00,338.95 C347.00,339.42 344.89,340.53 342.32,341.41 ZM 217.53 284.23 C216.96,284.64 216.16,284.98 215.75,284.98 C214.67,285.01 214.82,267.23 215.91,266.55 C217.59,265.52 236.27,260.92 237.35,261.28 C238.24,261.58 220.55,282.08 217.53,284.23 ZM 448.64 294.51 C449.12,295.74 447.99,296.00 442.11,296.00 C437.15,296.00 435.00,295.63 435.00,294.77 C435.00,292.66 441.23,276.00 442.02,276.00 C442.43,276.00 443.96,279.83 445.42,284.51 C446.88,289.19 448.33,293.69 448.64,294.51 ZM 299.05 151.56 C299.71,152.35 301.03,153.00 302.00,153.00 C306.03,153.00 307.32,146.84 303.75,144.61 C300.12,142.33 296.20,148.13 299.05,151.56 ZM 200.04 201.55 C201.77,203.64 204.75,203.33 206.03,200.94 C207.52,198.17 205.54,195.80 202.09,196.20 C199.20,196.54 198.15,199.27 200.04,201.55 ZM 415.04 389.55 C415.70,390.35 416.58,391.00 417.00,391.00 C418.42,391.00 420.17,388.10 419.82,386.30 C419.60,385.15 418.58,384.50 417.00,384.50 C414.19,384.50 413.12,387.24 415.04,389.55 ZM 313.02 456.53 C314.75,458.61 318.22,456.55 317.81,453.68 C317.59,452.11 316.81,451.50 315.01,451.50 C312.20,451.50 311.12,454.23 313.02,456.53 ZM 138.15 455.11 C140.38,456.52 141.83,456.12 142.53,453.90 C143.33,451.37 141.90,449.68 139.37,450.17 C137.12,450.60 136.30,453.94 138.15,455.11 ZM 113.39 210.57 C113.75,211.51 114.89,212.01 116.25,211.82 C117.90,211.59 118.50,210.83 118.50,209.00 C118.50,207.17 117.90,206.41 116.25,206.18 C113.79,205.83 112.39,207.98 113.39,210.57 ZM 243.39 517.57 C244.15,519.55 246.93,519.07 248.39,516.72 C249.25,515.35 249.16,514.73 248.00,513.99 C244.72,511.90 242.02,514.00 243.39,517.57 ZM 486.00 380.50 C486.68,381.33 487.58,382.00 488.00,382.00 C489.46,382.00 491.22,379.01 490.64,377.51 C489.90,375.58 487.60,375.57 486.00,377.50 C485.01,378.70 485.01,379.30 486.00,380.50 ZM 363.41 93.62 C364.31,95.97 368.44,94.93 368.82,92.25 C369.08,90.43 368.66,90.00 366.63,90.00 C363.78,90.00 362.55,91.38 363.41,93.62 ZM 379.62 489.46 C380.51,491.77 383.44,490.92 383.82,488.24 C384.06,486.56 383.64,486.00 382.13,486.00 C379.69,486.00 378.78,487.26 379.62,489.46 ZM 410.00 144.06 C410.00,145.31 410.69,146.00 411.94,146.00 C414.63,146.00 415.54,144.11 413.71,142.29 C411.89,140.46 410.00,141.37 410.00,144.06 ZM 181.69 105.35 C182.88,106.55 184.49,105.43 184.82,103.17 C185.06,101.54 184.63,101.00 183.07,101.00 C181.04,101.00 180.15,103.81 181.69,105.35 ZM 77.34 230.43 C77.67,231.29 78.63,232.00 79.47,232.00 C81.22,232.00 81.56,228.46 79.91,227.45 C78.38,226.50 76.61,228.55 77.34,230.43 ZM 227.18 145.75 C226.93,147.48 227.35,148.00 229.00,148.00 C230.65,148.00 231.07,147.48 230.82,145.75 C230.64,144.51 229.82,143.50 229.00,143.50 C228.18,143.50 227.36,144.51 227.18,145.75 Z" fill="rgb(20,17,48)"/>
<path d="M 94.21 410.00 C94.62,410.00 97.33,408.51 100.23,406.68 C103.13,404.86 107.30,402.56 109.50,401.58 C111.70,400.59 114.81,399.16 116.40,398.39 C118.00,397.63 120.11,397.00 121.09,397.00 C122.08,397.00 123.13,396.60 123.43,396.11 C123.73,395.62 125.45,395.00 127.24,394.74 C129.03,394.47 133.88,393.27 138.00,392.07 C156.26,386.75 155.96,386.83 172.50,382.50 C186.16,378.92 188.15,378.42 198.50,376.05 C201.25,375.42 205.30,374.45 207.50,373.90 C209.70,373.34 213.30,372.49 215.50,372.00 C217.70,371.51 221.30,370.68 223.50,370.15 C225.70,369.63 229.75,368.68 232.50,368.05 C235.25,367.42 239.07,366.52 241.00,366.06 C242.93,365.59 248.10,364.45 252.50,363.52 C256.90,362.58 262.08,361.43 264.00,360.95 C265.92,360.48 268.85,359.82 270.50,359.50 C272.15,359.17 275.30,358.44 277.50,357.87 C279.70,357.30 283.30,356.38 285.50,355.83 L 293.50 353.83 C302.61,351.56 304.63,351.07 307.25,350.53 C308.76,350.22 310.00,349.51 310.00,348.97 C310.00,348.35 305.31,348.07 297.55,348.24 C289.87,348.40 284.70,348.10 284.06,347.45 C283.48,346.88 282.72,342.98 282.36,338.79 L 281.72 331.17 L 286.61 328.83 L 291.50 326.50 L 291.78 297.50 C291.93,281.55 291.84,267.60 291.57,266.50 C291.30,265.40 289.06,263.29 286.60,261.81 C282.54,259.37 282.09,258.72 281.81,254.82 C281.41,249.22 278.73,248.37 276.64,253.18 C275.85,255.01 273.94,257.85 272.41,259.50 C270.87,261.15 263.63,268.86 256.31,276.64 C248.99,284.41 243.00,291.27 243.00,291.89 C243.00,292.50 244.91,295.44 247.25,298.44 C263.48,319.21 277.64,337.58 278.41,338.87 C279.79,341.18 280.00,345.29 278.81,346.72 C278.04,347.66 273.64,348.00 262.43,348.00 L 247.11 348.00 L 240.72 339.75 C237.20,335.21 230.35,326.21 225.49,319.75 C220.63,313.29 216.28,308.00 215.83,308.00 C215.37,308.00 215.00,312.02 215.00,316.93 C215.00,326.70 215.13,326.93 222.95,331.23 C226.07,332.95 226.09,332.99 225.79,340.23 L 225.50 347.50 L 200.73 347.77 C180.79,347.98 175.85,347.77 175.44,346.70 C175.16,345.96 174.83,342.04 174.71,337.98 L 174.50 330.61 L 179.00 329.02 L 183.50 327.44 L 183.77 302.54 C183.92,288.84 183.69,277.31 183.27,276.90 C182.07,275.76 155.13,285.17 153.90,287.17 C153.54,287.74 153.17,292.55 153.07,297.86 C152.97,303.16 152.55,307.85 152.13,308.27 C151.70,308.69 146.22,308.52 139.93,307.88 C133.64,307.24 126.70,306.67 124.50,306.61 L 120.50 306.50 L 120.50 326.50 L 130.61 326.78 C140.47,327.06 140.77,327.00 142.39,324.53 C143.30,323.14 144.84,322.00 145.82,322.00 C146.80,322.00 149.35,320.20 151.50,318.00 C155.14,314.28 155.79,314.00 160.95,314.02 L 161.19 314.02 C164.61,314.02 166.61,314.03 167.72,315.02 C169.28,316.42 169.10,319.75 168.68,327.76 L 168.66 328.16 C168.30,334.95 167.64,342.08 167.21,344.00 L 166.42 347.50 L 128.52 347.76 C95.02,347.99 90.42,348.21 88.82,349.67 C87.17,351.15 86.83,351.16 85.25,349.76 C84.29,348.90 82.60,348.04 81.50,347.85 C79.80,347.54 79.36,346.31 78.58,339.60 C77.75,332.46 77.83,331.59 79.52,330.36 C80.54,329.61 82.32,329.00 83.47,329.00 C84.62,329.00 86.56,328.30 87.78,327.44 C89.61,326.16 90.00,324.93 90.00,320.50 C90.00,317.54 89.55,314.84 88.99,314.49 C87.87,313.80 78.77,319.04 69.50,325.72 C60.71,332.04 50.41,342.61 47.89,347.89 C44.96,354.01 44.34,361.50 46.36,366.33 C46.97,367.78 47.56,368.78 48.61,369.72 C47.01,368.65 45.68,367.62 44.95,366.82 C41.96,363.58 41.90,363.33 42.57,356.51 C43.02,351.92 44.15,347.83 45.88,344.60 C49.13,338.50 58.46,328.68 66.84,322.53 C74.73,316.73 86.74,309.00 87.85,309.00 C90.70,309.00 92.39,325.63 89.75,327.77 C89.06,328.33 86.57,329.37 84.21,330.07 L 79.92 331.34 L 80.21 338.92 C80.47,345.84 80.69,346.53 82.68,346.81 C83.87,346.98 85.38,347.76 86.03,348.53 C87.03,349.75 87.41,349.74 88.67,348.47 C89.91,347.23 95.94,347.00 127.51,347.00 C148.46,347.00 165.13,346.61 165.44,346.10 C166.26,344.78 167.95,319.03 167.32,317.40 C166.96,316.45 165.13,316.00 161.60,316.00 C156.86,316.00 156.07,316.35 152.50,320.00 C150.35,322.20 147.80,324.00 146.82,324.00 C145.84,324.00 144.30,325.14 143.39,326.53 C141.76,329.02 141.54,329.06 130.61,328.78 L 119.50 328.50 L 119.22 317.23 C118.98,307.62 119.17,305.87 120.55,305.34 C121.43,305.00 126.74,305.25 132.33,305.90 C137.92,306.54 144.52,307.17 147.00,307.29 L 151.50 307.50 L 152.00 296.20 C152.29,289.66 152.10,284.49 151.55,283.95 C151.03,283.43 149.45,282.98 148.05,282.95 C143.63,282.88 153.83,278.10 158.53,278.05 C160.74,278.02 163.67,277.21 165.03,276.25 C167.74,274.34 179.50,270.07 182.19,270.03 C184.72,269.99 185.13,275.27 184.80,303.50 L 184.50 328.50 L 175.92 331.21 L 176.50 346.50 L 224.50 346.50 L 224.80 340.31 L 225.09 334.12 L 219.55 330.57 L 214.00 327.02 L 214.00 316.57 C214.00,310.82 214.42,305.86 214.94,305.54 C215.46,305.22 219.84,310.19 224.69,316.59 C229.54,322.99 236.67,332.34 240.55,337.37 L 247.61 346.50 L 277.50 346.50 L 277.80 343.38 L 277.80 343.37 C277.84,342.99 277.87,342.65 277.87,342.31 C277.85,339.88 275.97,337.47 260.50,317.61 C258.85,315.49 256.38,312.30 255.00,310.51 C253.62,308.73 250.14,304.21 247.25,300.48 C244.36,296.75 242.00,292.88 242.00,291.87 C242.00,290.86 249.28,282.34 258.19,272.92 C274.34,255.85 274.38,255.80 275.49,249.66 C276.49,244.13 276.85,243.50 279.01,243.50 C281.78,243.50 282.74,245.89 282.90,253.16 C282.99,257.56 283.27,258.01 288.00,261.40 L 293.00 265.00 L 292.98 295.75 C292.98,312.66 292.64,327.00 292.23,327.61 C291.83,328.21 289.82,329.26 287.76,329.93 C285.71,330.60 283.88,331.45 283.70,331.82 C283.52,332.20 283.62,335.65 283.93,339.50 L 284.50 346.50 L 300.42 347.00 C310.96,347.33 316.46,347.88 316.71,348.63 C316.92,349.25 315.83,350.01 314.29,350.32 C312.76,350.63 309.48,351.38 307.00,351.99 C304.52,352.61 300.70,353.51 298.50,354.00 C294.60,354.87 289.87,356.02 282.25,357.95 C280.19,358.47 276.48,359.36 274.00,359.93 C265.83,361.80 255.63,364.10 246.50,366.14 C241.55,367.25 235.70,368.59 233.50,369.13 C228.70,370.30 222.60,371.67 218.50,372.49 C216.85,372.82 213.70,373.56 211.50,374.13 C209.30,374.70 205.81,375.58 203.75,376.08 C201.69,376.59 198.31,377.44 196.25,377.97 C194.19,378.50 187.55,380.11 181.50,381.54 C175.45,382.98 167.35,385.02 163.50,386.09 C159.65,387.17 154.70,388.53 152.50,389.12 C150.30,389.71 147.72,390.60 146.76,391.10 C145.81,391.59 143.92,392.00 142.57,392.00 C141.22,392.00 139.87,392.40 139.57,392.89 C139.27,393.38 137.55,394.02 135.76,394.32 C130.51,395.19 126.64,396.09 124.50,396.96 C123.40,397.40 119.35,399.00 115.50,400.52 C107.38,403.71 96.44,409.86 90.00,414.86 C87.53,416.79 85.00,418.73 84.38,419.19 C83.74,419.67 82.87,419.49 82.33,418.76 C81.43,417.54 76.50,407.38 72.29,398.37 C76.20,406.57 81.21,416.48 82.22,417.73 C82.97,418.66 84.48,417.86 88.34,414.48 C91.16,412.02 93.80,410.00 94.21,410.00 ZM 389.87 327.41 C397.56,324.56 397.31,324.88 402.81,311.00 C404.44,306.88 408.72,296.52 412.30,288.00 C415.89,279.48 421.38,266.20 424.49,258.50 C427.61,250.80 430.73,243.91 431.42,243.20 C432.17,242.42 436.71,241.58 442.65,241.12 C453.31,240.30 455.91,239.51 454.09,237.69 C452.64,236.24 452.70,232.70 454.20,231.20 C456.09,229.31 459.82,229.79 461.04,232.07 C461.90,233.68 461.78,234.68 460.50,236.63 C459.41,238.31 459.19,239.52 459.84,240.32 C460.77,241.45 468.12,260.46 474.98,279.50 C479.15,291.05 479.74,291.70 484.13,289.45 C495.36,283.67 511.20,272.06 520.01,263.13 C531.53,251.47 534.00,247.14 534.00,238.63 C534.00,233.19 533.18,230.01 530.13,227.23 C530.55,227.57 530.93,227.89 531.25,228.19 C534.89,231.63 535.00,231.94 535.00,238.78 C535.00,244.44 534.48,246.81 532.35,250.93 C529.26,256.88 519.69,267.65 513.68,271.95 C503.50,279.22 486.96,290.05 483.55,291.68 C480.05,293.34 479.73,293.35 478.58,291.78 C477.91,290.86 473.34,279.27 468.43,266.04 C462.29,249.50 458.96,241.81 457.78,241.44 C456.84,241.13 453.49,241.36 450.35,241.94 C447.21,242.52 442.27,243.00 439.39,243.00 C436.12,243.00 433.59,243.55 432.68,244.46 C431.88,245.27 429.78,249.43 428.01,253.71 C414.87,285.67 405.18,308.90 401.65,316.91 L 397.50 326.33 L 391.00 328.66 C382.87,331.58 379.91,331.60 377.26,328.75 C373.40,324.58 349.00,292.72 349.00,291.85 C349.00,291.37 356.69,282.79 366.08,272.77 L 383.16 254.56 L 382.49 250.03 C382.12,247.54 381.35,244.94 380.78,244.25 C380.04,243.35 375.36,243.00 363.88,243.00 C349.33,243.00 347.83,243.17 346.00,245.00 C343.36,247.64 343.39,253.33 346.07,257.09 C347.27,258.78 347.88,260.74 347.52,261.75 C346.45,264.82 323.34,288.33 322.13,287.58 C321.40,287.13 321.00,282.88 321.00,275.50 C321.00,264.87 321.15,264.01 323.22,262.56 C324.44,261.70 326.44,261.00 327.65,261.00 C331.97,261.00 333.27,258.35 332.49,251.08 C332.11,247.46 331.36,244.23 330.84,243.91 C330.31,243.58 321.51,243.03 311.28,242.69 C301.05,242.35 292.25,241.65 291.74,241.14 C290.72,240.12 296.44,238.27 309.00,235.55 C313.12,234.65 323.02,232.31 331.00,230.35 C338.98,228.38 347.30,226.41 349.50,225.96 C351.70,225.52 355.30,224.64 357.50,224.01 C359.70,223.38 363.30,222.47 365.50,221.97 C370.06,220.94 393.75,214.88 402.00,212.63 C408.08,210.97 413.99,209.35 427.53,205.63 C432.50,204.27 437.68,202.71 439.03,202.17 C440.39,201.63 444.20,200.43 447.50,199.51 C458.73,196.38 469.06,191.76 479.29,185.29 C484.90,181.74 490.44,177.96 491.58,176.90 C493.57,175.06 493.73,175.05 495.22,176.73 C496.76,178.47 500.77,186.24 504.95,195.36 C500.67,186.34 496.20,177.91 495.29,177.56 C494.46,177.24 492.14,178.43 489.96,180.30 C487.83,182.12 484.83,184.25 483.30,185.03 C481.76,185.80 478.70,187.62 476.50,189.06 C469.26,193.81 438.06,206.36 422.00,210.99 C418.42,212.02 406.73,215.37 396.00,218.43 C385.27,221.49 371.33,225.54 365.00,227.43 C358.67,229.32 347.20,232.48 339.50,234.45 C318.56,239.81 317.89,240.02 318.53,241.05 C318.85,241.57 322.03,242.00 325.58,242.00 C331.68,242.00 332.11,242.16 333.07,244.68 C333.63,246.15 333.95,250.07 333.79,253.39 C333.48,259.85 333.43,259.91 325.75,262.89 L 323.00 263.96 L 323.05 275.23 L 323.10 286.50 L 334.54 274.50 C340.83,267.90 345.98,261.67 345.99,260.66 C345.99,259.64 345.13,257.71 344.07,256.36 C341.91,253.62 342.17,248.22 344.64,244.25 C346.01,242.06 346.48,242.00 363.47,242.00 C383.41,242.00 383.49,242.03 383.83,250.72 C384.00,255.14 383.67,255.87 379.34,260.50 C376.76,263.25 369.33,271.17 362.83,278.11 C356.32,285.04 351.00,291.26 351.00,291.93 C351.00,293.29 358.84,303.79 361.50,306.00 C362.97,307.22 363.32,307.18 364.15,305.70 C365.35,303.54 367.87,303.50 368.69,305.63 C369.08,306.66 368.49,307.88 367.07,308.95 L 364.82 310.64 L 370.05 317.57 C376.78,326.48 380.06,330.00 381.63,330.00 C382.32,330.00 386.03,328.83 389.87,327.41 ZM 358.69 531.98 C357.06,535.22 355.31,535.56 354.44,532.81 C352.92,527.97 345.91,519.16 339.34,513.81 C326.11,503.05 306.93,492.24 289.50,485.73 C267.59,477.55 255.91,473.97 249.00,473.33 C246.52,473.10 243.38,472.64 242.00,472.30 C240.62,471.95 238.91,471.77 238.18,471.90 C237.46,472.02 234.76,471.46 232.18,470.65 C229.61,469.84 224.35,468.81 220.50,468.35 C211.22,467.26 180.30,467.25 176.50,468.34 C174.85,468.82 171.70,469.58 169.50,470.04 C153.55,473.36 144.41,477.22 138.25,483.25 C135.68,485.77 134.00,486.83 134.00,485.93 C134.00,485.11 131.41,481.88 128.25,478.75 C122.78,473.33 122.16,473.01 115.50,472.05 C113.83,471.81 112.29,471.56 110.88,471.31 C112.41,471.57 114.11,471.83 116.00,472.09 C123.12,473.08 123.76,473.39 128.68,478.22 L 133.86 483.30 L 138.81 478.38 C142.60,474.61 145.72,472.70 152.13,470.23 C167.33,464.36 176.83,462.42 195.50,461.40 C202.10,461.04 208.42,460.40 209.54,459.98 C210.78,459.51 212.55,459.74 214.04,460.57 C215.39,461.32 218.11,461.95 220.09,461.96 C224.51,462.01 239.80,464.29 250.50,466.51 C283.68,473.38 319.27,489.69 341.43,508.16 C350.61,515.80 354.92,520.53 357.12,525.36 C357.76,526.76 359.00,528.05 359.89,528.22 C360.64,528.36 362.96,527.74 366.40,526.53 C361.26,528.65 359.74,529.88 358.69,531.98 ZM 448.73 116.28 C443.91,111.93 442.60,112.28 437.55,116.76 C431.69,121.98 428.05,123.94 418.00,127.28 C401.66,132.73 378.15,135.61 359.11,134.49 C309.51,131.59 253.70,110.53 226.41,84.42 C222.16,80.36 216.00,71.90 216.00,70.13 C216.00,69.57 215.53,68.83 214.95,68.47 C213.60,67.64 195.29,74.89 182.98,81.12 L 173.47 85.94 L 167.92 85.61 L 173.50 85.80 L 183.00 81.05 C188.23,78.44 197.36,74.38 203.29,72.02 C213.05,68.16 214.22,67.42 215.52,64.30 C216.96,60.85 219.00,60.59 219.00,63.86 C219.00,66.89 224.42,74.26 231.63,81.04 C238.29,87.29 257.10,99.42 267.00,103.84 C292.59,115.26 307.53,120.10 326.50,123.12 C329.80,123.64 334.98,124.51 338.00,125.04 C346.27,126.49 372.52,128.89 380.72,128.95 C384.69,128.98 391.44,128.29 395.72,127.43 C410.06,124.54 417.47,122.85 421.00,121.67 C425.94,120.02 436.03,114.30 439.04,111.44 L 441.59 109.02 L 447.04 114.59 C447.64,115.19 448.20,115.76 448.73,116.28 ZM 400.91 512.39 C402.79,512.01 404.29,512.16 406.75,512.49 C413.94,513.45 419.36,513.33 424.50,512.11 C426.70,511.59 430.99,510.63 434.04,509.97 C437.09,509.32 441.36,507.57 443.54,506.10 C446.95,503.79 447.54,502.84 447.81,499.25 C448.27,492.91 446.80,491.00 441.46,491.00 C436.75,491.00 435.58,489.42 438.50,487.00 C439.33,486.32 440.00,485.07 440.00,484.23 C440.00,481.92 432.70,475.75 421.25,468.36 C415.61,464.72 411.00,461.46 411.01,461.12 C411.02,459.90 414.60,455.21 420.90,448.16 C428.09,440.11 430.15,439.45 436.72,443.10 C442.28,446.18 454.09,455.20 458.02,459.37 C459.90,461.37 461.94,463.00 462.55,463.00 C464.42,463.00 475.58,451.02 482.73,441.33 C486.30,436.49 489.66,431.64 492.79,426.76 C486.88,436.11 480.49,444.92 474.02,452.52 C465.34,462.71 463.00,465.88 463.00,467.43 C463.00,470.01 461.42,469.27 455.31,463.85 C449.10,458.35 432.32,447.00 430.40,447.00 C429.03,447.00 420.00,457.33 420.00,458.90 C420.00,459.50 424.16,463.06 429.25,466.82 C444.12,477.82 454.00,490.02 454.00,497.37 C454.00,500.30 451.58,506.27 449.79,507.76 C449.07,508.36 446.23,509.40 443.49,510.07 C440.74,510.74 437.99,511.69 437.36,512.18 C435.87,513.34 414.21,513.65 406.50,512.63 C404.06,512.30 402.55,512.14 400.91,512.39 ZM 156.02 85.21 C144.67,85.54 135.04,88.36 130.25,92.93 C127.08,95.95 127.07,103.23 130.22,105.44 C131.44,106.30 133.62,107.00 135.06,107.00 C138.85,107.00 139.32,108.03 136.76,110.77 L 134.50 113.19 L 140.27 118.57 C145.92,123.84 154.64,130.10 160.37,133.01 C161.95,133.81 163.46,135.05 163.74,135.76 C164.01,136.47 162.26,139.17 159.85,141.77 C157.44,144.37 153.74,148.64 151.61,151.25 C149.49,153.86 147.12,156.00 146.33,156.00 C142.39,156.00 127.50,146.11 120.03,138.54 C117.03,135.49 114.03,133.00 113.38,133.00 C111.21,133.00 100.38,146.13 91.18,159.19 C96.82,150.98 102.98,142.95 109.63,135.13 C113.08,131.07 113.26,130.54 112.19,127.70 C111.56,126.01 111.25,124.41 111.52,124.15 C111.79,123.88 115.04,126.68 118.75,130.37 C125.91,137.48 142.20,149.00 145.11,149.00 C147.21,149.00 154.98,140.18 154.99,137.79 C155.00,135.74 154.38,135.18 145.98,129.73 C132.05,120.70 123.26,109.92 122.31,100.72 C121.77,95.47 121.92,94.92 124.71,92.13 C126.66,90.19 130.23,88.38 134.96,86.94 C141.24,85.04 143.49,84.81 156.02,85.21 ZM 59.24 282.56 C64.10,278.68 77.39,269.83 82.90,266.80 C84.61,265.86 86.00,264.70 86.00,264.23 C86.00,263.76 84.20,262.36 82.00,261.12 L 78.00 258.87 L 78.00 252.06 C78.00,247.76 78.47,244.85 79.27,244.19 C80.09,243.51 92.04,243.00 112.52,242.78 L 144.50 242.42 L 156.50 239.08 C163.10,237.24 169.74,235.52 171.26,235.25 C172.78,234.99 174.27,234.37 174.57,233.88 C174.87,233.40 176.10,232.99 177.31,232.99 C178.51,232.98 181.52,232.25 184.00,231.36 C186.48,230.48 190.07,229.33 192.00,228.82 C193.93,228.31 197.07,227.46 199.00,226.93 C200.93,226.40 204.30,225.57 206.50,225.09 C208.70,224.60 217.66,222.36 226.41,220.10 C235.16,217.85 243.23,216.00 244.34,216.00 C245.45,216.00 247.74,215.58 249.43,215.07 C252.29,214.20 256.47,213.10 265.00,210.96 C266.92,210.48 271.42,209.35 275.00,208.45 C281.22,206.89 285.34,205.89 293.00,204.08 C294.92,203.63 301.67,202.01 308.00,200.48 C314.33,198.96 321.52,197.36 324.00,196.94 C326.48,196.51 330.30,195.67 332.50,195.07 C334.70,194.47 338.52,193.51 341.00,192.94 C343.48,192.37 347.19,191.47 349.25,190.95 C352.78,190.06 356.79,189.06 365.00,187.05 C366.92,186.58 370.98,185.51 374.00,184.67 C377.02,183.83 383.10,182.20 387.50,181.05 C391.90,179.89 397.98,178.25 401.00,177.40 C404.02,176.55 408.30,175.39 410.50,174.82 C412.70,174.24 415.40,173.40 416.50,172.95 C417.60,172.50 421.42,171.17 425.00,170.00 C428.58,168.83 432.40,167.48 433.50,167.01 C434.60,166.54 437.52,165.34 440.00,164.33 C454.15,158.60 472.58,147.56 476.44,142.49 C480.08,137.72 479.95,132.11 476.12,128.28 C474.70,126.86 472.12,125.53 469.20,124.56 C470.49,124.86 471.73,125.18 472.75,125.49 C477.17,126.83 478.31,127.69 479.98,130.95 C481.64,134.22 481.78,135.34 480.82,138.09 C479.28,142.51 476.53,145.52 469.92,150.04 C463.05,154.72 447.08,163.28 441.00,165.52 C438.52,166.44 435.60,167.55 434.50,167.99 C424.92,171.82 421.48,173.00 419.93,173.00 C418.93,173.00 417.87,173.40 417.57,173.88 C417.27,174.37 415.78,175.00 414.26,175.28 C412.74,175.56 406.77,177.20 401.00,178.93 C395.23,180.66 387.80,182.67 384.50,183.41 C372.45,186.12 356.46,190.26 354.76,191.12 C353.81,191.60 351.70,192.00 350.07,192.00 C348.45,192.00 346.87,192.40 346.57,192.89 C346.26,193.39 344.32,194.02 342.26,194.31 C340.19,194.60 336.48,195.35 334.00,195.97 C331.52,196.60 327.70,197.51 325.50,198.00 C323.30,198.49 319.70,199.33 317.50,199.87 C313.78,200.79 305.80,202.64 295.00,205.10 C292.52,205.67 289.15,206.36 287.50,206.63 C285.85,206.91 283.60,207.52 282.50,207.99 C281.40,208.46 279.15,209.13 277.50,209.47 C275.85,209.81 272.70,210.56 270.50,211.13 C268.30,211.70 264.81,212.40 262.74,212.69 C260.68,212.98 258.74,213.61 258.43,214.11 C258.13,214.60 256.70,215.00 255.26,215.00 C253.82,215.00 251.26,215.42 249.57,215.92 C247.88,216.43 244.02,217.37 241.00,218.02 C237.98,218.66 234.15,219.58 232.50,220.07 C230.85,220.56 226.35,221.66 222.50,222.53 C218.65,223.39 214.38,224.47 213.00,224.92 C211.62,225.38 208.02,226.29 205.00,226.95 C201.98,227.61 198.38,228.51 197.00,228.96 C195.62,229.40 192.48,230.32 190.00,231.00 C187.52,231.68 184.38,232.58 183.00,233.00 C181.62,233.42 178.48,234.33 176.00,235.02 C168.05,237.23 164.55,238.26 162.50,238.99 C151.59,242.89 146.52,243.39 114.01,243.77 C93.41,244.01 81.06,244.53 80.26,245.20 C79.51,245.82 79.00,248.60 79.00,252.08 L 79.00 257.92 L 83.50 260.55 C85.97,262.00 88.00,263.74 88.00,264.41 C88.00,265.08 86.09,266.68 83.75,267.96 C81.41,269.24 75.22,273.10 70.00,276.53 C64.78,279.96 57.39,285.63 53.58,289.12 L 46.67 295.48 L 46.79 293.46 L 50.62 289.92 C52.76,287.94 56.63,284.63 59.24,282.56 ZM 529.81 308.73 C529.79,307.78 529.73,307.07 529.63,306.68 L 528.94 303.93 L 523.76 308.21 C520.90,310.57 517.65,313.33 516.53,314.36 C515.42,315.38 510.45,318.92 505.50,322.24 C500.55,325.55 496.11,328.62 495.62,329.06 C495.14,329.50 495.75,331.47 497.00,333.50 C498.84,336.47 499.14,338.00 498.62,341.78 C498.27,344.33 497.62,346.78 497.17,347.23 C496.72,347.68 485.36,348.16 471.93,348.30 L 447.50 348.57 L 430.50 354.41 C421.15,357.63 412.60,360.63 411.50,361.07 C409.76,361.77 403.94,363.31 388.75,367.07 C379.03,369.48 377.24,369.94 373.50,371.03 C371.30,371.66 368.03,372.42 366.24,372.70 C364.45,372.99 362.73,373.62 362.43,374.11 C362.13,374.60 360.70,375.00 359.26,375.00 C357.82,375.00 355.26,375.42 353.57,375.93 C348.95,377.34 343.67,378.65 331.00,381.57 C324.67,383.02 317.92,384.60 316.00,385.07 C314.08,385.53 310.02,386.44 307.00,387.07 C303.98,387.71 300.47,388.62 299.20,389.11 C297.94,389.60 295.60,390.00 294.01,390.00 C292.42,390.00 290.87,390.40 290.57,390.89 C290.26,391.39 288.32,392.03 286.26,392.31 C281.00,393.05 276.84,394.00 274.50,395.01 C273.40,395.49 270.92,396.10 269.00,396.37 C267.08,396.64 263.70,397.32 261.50,397.88 C259.30,398.44 255.48,399.36 253.00,399.91 C238.44,403.18 229.92,405.21 223.50,406.95 C221.30,407.54 217.70,408.44 215.50,408.94 C213.30,409.44 207.90,410.82 203.50,412.00 C195.43,414.18 191.82,415.10 184.50,416.88 C171.83,419.95 166.64,421.33 159.00,423.64 C154.32,425.05 149.60,426.57 148.50,427.01 C147.40,427.46 143.45,428.98 139.73,430.41 C122.61,436.98 107.86,445.25 102.04,451.57 C98.47,455.44 98.00,456.53 98.00,460.82 C98.00,465.27 99.00,467.68 103.09,469.35 C99.00,467.84 97.14,465.89 96.51,463.04 C94.23,452.68 105.03,443.78 136.50,430.05 C143.79,426.87 160.49,421.62 176.50,417.48 C184.20,415.48 194.77,412.75 200.00,411.40 C209.14,409.03 214.78,407.66 236.50,402.49 C242.00,401.19 250.55,399.14 255.50,397.95 C260.45,396.76 266.30,395.41 268.50,394.95 C272.23,394.17 274.72,393.57 285.00,391.00 C291.74,389.32 296.28,388.25 301.50,387.13 C304.25,386.53 312.35,384.64 319.50,382.92 C326.65,381.19 335.20,379.18 338.50,378.45 C344.79,377.05 371.40,370.29 381.25,367.58 C389.77,365.24 397.40,363.19 407.81,360.44 C412.93,359.08 419.68,357.04 422.81,355.90 C425.94,354.76 429.85,353.46 431.50,353.01 C433.15,352.57 437.65,351.03 441.50,349.60 C448.30,347.07 449.13,347.00 472.14,347.00 C473.53,347.00 474.84,347.00 476.07,347.00 C490.70,347.02 495.14,347.02 496.46,344.99 C497.04,344.10 497.03,342.83 497.01,341.00 C497.00,340.65 497.00,340.28 497.00,339.88 C497.00,337.40 496.20,334.84 494.87,333.03 C492.56,329.91 492.89,327.36 495.73,326.29 C501.16,324.25 515.36,313.68 524.87,304.62 L 530.24 299.50 ZM 346.61 341.34 C345.24,342.23 341.64,343.26 338.62,343.62 L 333.11 344.26 L 332.81 338.94 C332.51,333.80 332.35,333.53 328.00,331.00 C325.52,329.55 322.94,327.28 322.25,325.94 C320.67,322.88 320.98,305.83 322.62,305.29 C323.60,304.97 347.44,335.39 348.64,338.49 C348.89,339.16 347.98,340.44 346.61,341.34 ZM 238.72 263.18 C235.36,268.04 215.47,288.18 214.75,287.44 C213.42,286.07 213.87,265.36 215.25,264.21 C215.94,263.64 218.21,262.86 220.31,262.47 C222.65,262.03 224.70,260.86 225.64,259.43 C226.48,258.15 228.75,256.58 230.70,255.93 C234.02,254.84 234.42,254.95 237.28,257.81 C240.18,260.72 240.25,260.97 238.72,263.18 ZM 342.32 341.41 C344.89,340.53 347.00,339.42 347.00,338.95 C347.00,338.23 339.74,327.98 335.71,323.00 C335.04,322.17 332.27,318.46 329.55,314.75 C326.84,311.04 324.23,308.00 323.77,308.00 C323.31,308.00 323.05,312.15 323.21,317.21 L 323.50 326.43 L 327.00 328.67 C334.20,333.29 334.38,333.51 334.59,338.09 C334.71,340.52 334.85,342.61 334.90,342.75 C335.15,343.39 338.04,342.86 342.32,341.41 ZM 379.50 105.06 C385.29,104.09 389.42,103.18 397.14,101.20 C401.65,100.04 414.56,94.25 418.25,91.74 C423.61,88.09 420.51,84.50 413.89,85.58 C421.46,84.09 425.38,86.71 421.45,91.06 C418.71,94.09 400.09,102.61 393.50,103.85 C390.20,104.47 384.58,105.64 381.00,106.45 C373.97,108.05 347.26,108.42 341.00,107.00 C339.08,106.57 334.58,105.69 331.00,105.05 C311.79,101.62 300.05,97.75 280.50,88.39 C262.57,79.81 248.00,66.52 248.00,58.76 C248.00,57.11 248.26,56.97 249.47,57.98 C250.28,58.64 251.60,58.86 254.51,58.63 C251.05,59.07 249.00,59.58 249.00,60.08 C249.00,61.31 255.94,70.29 258.84,72.81 C263.61,76.96 274.59,83.83 283.13,88.01 C297.70,95.14 330.53,104.90 340.50,105.07 C342.70,105.11 345.40,105.55 346.50,106.06 C348.89,107.15 371.02,106.49 379.50,105.06 ZM 306.50 538.94 C318.01,537.59 322.00,536.87 322.00,536.14 C321.99,534.72 317.97,529.03 314.57,525.63 C309.44,520.51 294.01,510.35 285.38,506.41 C274.94,501.66 249.75,493.47 241.50,492.15 C223.89,489.34 220.84,489.00 213.19,489.00 C202.04,489.00 189.45,490.95 179.50,494.22 C171.38,496.88 157.77,503.36 156.13,505.35 C152.77,509.39 158.26,511.99 166.45,510.23 C167.43,510.02 168.22,509.85 168.96,509.76 C168.65,509.82 168.33,509.91 167.99,510.00 C164.09,511.12 157.98,511.31 155.58,510.39 C152.97,509.39 153.74,505.40 157.08,502.59 C158.77,501.17 160.56,500.00 161.05,500.00 C161.55,500.00 164.80,498.69 168.28,497.10 C184.17,489.82 197.29,487.53 218.47,488.32 C236.41,488.99 246.47,490.82 263.50,496.52 C298.27,508.14 322.02,525.16 325.49,540.94 C326.33,544.78 325.90,544.80 323.66,541.00 C323.12,540.09 322.79,539.42 322.27,538.97 C320.93,537.78 318.34,538.00 307.54,538.94 C306.81,539.00 306.05,539.06 305.25,539.13 C304.18,539.22 303.10,539.31 302.01,539.38 C303.54,539.25 305.04,539.11 306.50,538.94 ZM 450.22 296.83 C449.63,298.61 435.02,297.66 433.85,295.76 C433.00,294.39 440.33,273.72 441.85,273.22 C442.46,273.01 443.40,273.89 443.93,275.17 C446.20,280.69 450.58,295.77 450.22,296.83 ZM 217.53 284.23 C220.55,282.08 238.24,261.58 237.35,261.28 C236.27,260.92 217.59,265.52 215.91,266.55 C214.82,267.23 214.67,285.01 215.75,284.98 C216.16,284.98 216.96,284.64 217.53,284.23 ZM 448.64 294.51 C448.33,293.69 446.88,289.19 445.42,284.51 C443.96,279.83 442.43,276.00 442.02,276.00 C441.23,276.00 435.00,292.66 435.00,294.77 C435.00,295.63 437.15,296.00 442.11,296.00 C447.99,296.00 449.12,295.74 448.64,294.51 ZM 299.05 151.56 C296.20,148.13 300.12,142.33 303.75,144.61 C307.32,146.84 306.03,153.00 302.00,153.00 C301.03,153.00 299.71,152.35 299.05,151.56 ZM 486.00 380.50 C485.01,379.30 485.01,378.70 486.00,377.50 C487.60,375.57 489.90,375.58 490.64,377.51 C491.22,379.01 489.46,382.00 488.00,382.00 C487.58,382.00 486.68,381.33 486.00,380.50 ZM 439.00 489.15 C439.00,490.40 443.42,490.18 444.72,488.88 C446.00,487.60 445.33,485.00 443.72,485.00 C442.41,485.00 439.00,488.00 439.00,489.15 ZM 130.67 111.33 C131.86,112.53 133.66,112.04 135.50,110.00 C137.28,108.03 137.25,108.00 133.65,108.00 C130.21,108.00 128.85,109.52 130.67,111.33 ZM 455.67 236.33 C456.63,237.30 457.44,237.16 458.80,235.80 C460.78,233.82 460.16,232.00 457.50,232.00 C455.74,232.00 455.00,232.54 455.00,233.83 C455.00,234.84 455.30,235.97 455.67,236.33 ZM 379.62 489.46 C378.78,487.26 379.69,486.00 382.13,486.00 C383.64,486.00 384.06,486.56 383.82,488.24 C383.44,490.92 380.51,491.77 379.62,489.46 ZM 410.00 144.06 C410.00,141.37 411.89,140.46 413.71,142.29 C415.54,144.11 414.63,146.00 411.94,146.00 C410.69,146.00 410.00,145.31 410.00,144.06 ZM 181.69 105.35 C180.15,103.81 181.04,101.00 183.07,101.00 C184.63,101.00 185.06,101.54 184.82,103.17 C184.49,105.43 182.88,106.55 181.69,105.35 ZM 77.34 230.43 C76.61,228.55 78.38,226.50 79.91,227.45 C81.56,228.46 81.22,232.00 79.47,232.00 C78.63,232.00 77.67,231.29 77.34,230.43 ZM 227.18 145.75 C227.36,144.51 228.18,143.50 229.00,143.50 C229.82,143.50 230.64,144.51 230.82,145.75 C231.07,147.48 230.65,148.00 229.00,148.00 C227.35,148.00 226.93,147.48 227.18,145.75 ZM 300.67 150.33 C301.83,151.49 302.90,151.06 304.00,149.00 C304.94,147.24 304.76,147.00 302.54,147.00 C300.15,147.00 299.14,148.80 300.67,150.33 ZM 52.11 248.76 C52.77,245.31 53.44,242.19 54.08,239.68 C58.91,220.71 66.24,202.12 75.90,184.18 C64.50,205.57 56.75,226.52 52.11,248.76 ZM 411.00 144.00 C411.00,144.55 411.45,145.00 412.00,145.00 C412.55,145.00 413.00,144.55 413.00,144.00 C413.00,143.45 412.55,143.00 412.00,143.00 C411.45,143.00 411.00,143.45 411.00,144.00 ZM 487.00 379.00 C487.00,379.55 487.45,380.00 488.00,380.00 C488.55,380.00 489.00,379.55 489.00,379.00 C489.00,378.45 488.55,378.00 488.00,378.00 C487.45,378.00 487.00,378.45 487.00,379.00 ZM 300.85 57.25 C308.71,57.49 315.72,57.91 320.00,58.52 C322.21,58.83 324.38,59.15 326.50,59.49 C318.27,58.33 309.79,57.59 300.85,57.25 ZM 258.31 58.21 C258.58,58.18 258.85,58.14 259.13,58.10 C264.48,57.38 274.71,57.03 285.51,57.03 C275.15,57.10 265.20,57.56 258.31,58.21 ZM 202.76 523.48 C207.82,525.48 212.37,526.82 221.50,529.45 C229.03,531.63 236.70,533.48 244.34,534.99 C236.09,533.39 227.87,531.41 219.93,529.06 C211.76,526.64 207.46,525.34 202.76,523.48 ZM 63.19 378.41 C61.46,376.77 58.93,375.18 55.53,373.61 C59.76,375.56 61.64,376.34 63.19,378.41 ZM 460.30 123.00 C457.49,122.98 454.92,121.80 451.65,118.96 C454.57,121.41 456.84,122.41 460.30,123.00 ZM 525.49 224.06 C524.31,223.41 522.97,222.74 521.47,222.02 C518.64,220.69 517.02,219.87 515.73,218.46 C517.04,219.59 519.09,220.84 521.47,221.91 C522.71,222.48 524.12,223.24 525.49,224.06 ZM 389.75 516.84 C390.86,516.34 391.86,515.88 392.77,515.48 C392.09,515.79 391.36,516.13 390.57,516.51 C385.84,518.73 379.19,521.59 374.69,523.35 C379.12,521.55 384.27,519.33 389.75,516.84 ZM 68.72 390.60 C67.09,387.01 66.00,384.44 66.00,384.10 C66.00,384.05 66.00,384.00 66.00,383.95 C66.58,385.34 67.24,387.00 68.04,389.00 C68.23,389.46 68.45,390.00 68.72,390.60 ZM 512.24 389.82 C515.02,383.11 517.47,376.27 519.59,369.25 C518.32,373.53 516.94,377.68 515.48,381.64 C514.49,384.33 513.41,387.06 512.24,389.82 ZM 411.06 86.22 C410.19,86.40 409.39,86.45 408.35,86.28 C409.36,86.44 410.17,86.39 411.06,86.22 Z" fill="rgb(124,89,142)"/>
<path d="M 529.81 308.73 L 530.24 299.50 L 524.87 304.62 C515.36,313.68 501.16,324.25 495.73,326.29 C492.89,327.36 492.56,329.91 494.87,333.03 C496.20,334.84 497.00,337.40 497.00,339.88 C497.00,340.28 497.00,340.65 497.01,341.00 C497.03,342.83 497.04,344.10 496.46,344.99 C495.14,347.02 490.70,347.02 476.07,347.00 C474.84,347.00 473.53,347.00 472.14,347.00 C449.13,347.00 448.30,347.07 441.50,349.60 C437.65,351.03 433.15,352.57 431.50,353.01 C429.85,353.46 425.94,354.76 422.81,355.90 C419.68,357.04 412.93,359.08 407.81,360.44 C397.40,363.19 389.77,365.24 381.25,367.58 C371.40,370.29 344.79,377.05 338.50,378.45 C335.20,379.18 326.65,381.19 319.50,382.92 C312.35,384.64 304.25,386.53 301.50,387.13 C296.28,388.25 291.74,389.32 285.00,391.00 C274.72,393.57 272.23,394.17 268.50,394.95 C266.30,395.41 260.45,396.76 255.50,397.95 C250.55,399.14 242.00,401.19 236.50,402.49 C214.78,407.66 209.14,409.03 200.00,411.40 C194.77,412.75 184.20,415.48 176.50,417.48 C160.49,421.62 143.79,426.87 136.50,430.05 C105.03,443.78 94.23,452.68 96.51,463.04 C96.97,465.16 98.12,466.78 100.36,468.09 C97.92,466.97 95.67,465.60 93.38,463.91 C87.77,459.77 80.03,449.71 78.14,444.10 C76.17,438.24 76.74,431.00 79.55,426.08 C81.89,422.00 82.33,419.99 79.67,413.75 C80.99,416.40 81.98,418.28 82.33,418.76 C82.87,419.49 83.74,419.67 84.38,419.19 C85.00,418.73 87.53,416.79 90.00,414.86 C96.44,409.86 107.38,403.71 115.50,400.52 C119.35,399.00 123.40,397.40 124.50,396.96 C126.64,396.09 130.51,395.19 135.76,394.32 C137.55,394.02 139.27,393.38 139.57,392.89 C139.87,392.40 141.22,392.00 142.57,392.00 C143.92,392.00 145.81,391.59 146.76,391.10 C147.72,390.60 150.30,389.71 152.50,389.12 C154.70,388.53 159.65,387.17 163.50,386.09 C167.35,385.02 175.45,382.98 181.50,381.54 C187.55,380.11 194.19,378.50 196.25,377.97 C198.31,377.44 201.69,376.59 203.75,376.08 C205.81,375.58 209.30,374.70 211.50,374.13 C213.70,373.56 216.85,372.82 218.50,372.49 C222.60,371.67 228.70,370.30 233.50,369.13 C235.70,368.59 241.55,367.25 246.50,366.14 C255.63,364.10 265.83,361.80 274.00,359.93 C276.48,359.36 280.19,358.47 282.25,357.95 C289.87,356.02 294.60,354.87 298.50,354.00 C300.70,353.51 304.52,352.61 307.00,351.99 C309.48,351.38 312.76,350.63 314.29,350.32 C315.83,350.01 316.92,349.25 316.71,348.63 C316.46,347.88 310.96,347.33 300.42,347.00 L 284.50 346.50 L 283.93 339.50 C283.62,335.65 283.52,332.20 283.70,331.82 C283.88,331.45 285.71,330.60 287.76,329.93 C289.82,329.26 291.83,328.21 292.23,327.61 C292.64,327.00 292.98,312.66 292.98,295.75 L 293.00 265.00 L 288.00 261.40 C283.27,258.01 282.99,257.56 282.90,253.16 C282.74,245.89 281.78,243.50 279.01,243.50 C276.85,243.50 276.49,244.13 275.49,249.66 C274.38,255.80 274.34,255.85 258.19,272.92 C249.28,282.34 242.00,290.86 242.00,291.87 C242.00,292.88 244.36,296.75 247.25,300.48 C250.14,304.21 253.62,308.73 255.00,310.51 C256.38,312.30 258.85,315.49 260.50,317.61 C275.97,337.47 277.85,339.88 277.87,342.31 C277.87,342.65 277.84,342.99 277.80,343.37 L 277.80 343.37 L 277.80 343.38 L 277.50 346.50 L 247.61 346.50 L 240.55 337.37 C236.67,332.34 229.54,322.99 224.69,316.59 C219.84,310.19 215.46,305.22 214.94,305.54 C214.42,305.86 214.00,310.82 214.00,316.57 L 214.00 327.02 L 219.55 330.57 L 225.09 334.12 L 224.80 340.31 L 224.50 346.50 L 176.50 346.50 L 175.92 331.21 L 184.50 328.50 L 184.80 303.50 C185.13,275.27 184.72,269.99 182.19,270.03 C179.50,270.07 167.74,274.34 165.03,276.25 C163.67,277.21 160.74,278.02 158.53,278.05 C153.83,278.10 143.63,282.88 148.05,282.95 C149.45,282.98 151.03,283.43 151.55,283.95 C152.10,284.49 152.29,289.66 152.00,296.20 L 151.50 307.50 L 147.00 307.29 C144.52,307.17 137.92,306.54 132.33,305.90 C126.74,305.25 121.43,305.00 120.55,305.34 C119.17,305.87 118.98,307.62 119.22,317.23 L 119.50 328.50 L 130.61 328.78 C133.26,328.85 135.27,328.90 136.84,328.90 C135.18,328.90 133.00,328.85 130.11,328.78 L 118.50 328.50 L 118.21 318.50 C118.05,313.00 118.18,307.44 118.51,306.14 C119.07,303.87 119.36,303.80 125.80,304.37 C129.48,304.70 136.66,305.26 141.75,305.62 L 151.00 306.27 L 151.00 284.97 L 135.60 285.64 L 120.19 286.30 L 119.47 279.59 C118.62,271.63 119.33,265.05 121.17,263.84 C124.19,261.87 144.00,263.65 144.00,265.89 C144.00,266.28 146.18,268.95 148.84,271.83 C153.61,276.99 153.76,277.06 158.09,276.40 C160.80,275.99 162.49,275.73 163.52,274.77 C165.26,273.14 165.12,269.50 164.73,259.72 L 164.73 259.65 C164.43,252.02 163.78,245.38 163.29,244.89 C162.15,243.75 156.72,243.72 115.50,244.70 L 81.50 245.50 L 81.20 251.68 L 80.91 257.86 L 85.45 260.53 L 90.00 263.19 L 90.08 270.85 C90.33,293.76 90.69,305.68 91.45,316.15 L 92.29 327.80 L 89.39 329.26 C87.80,330.06 85.24,331.02 83.71,331.39 C80.95,332.05 80.91,332.16 81.21,338.74 C81.47,344.77 81.72,345.47 83.80,345.96 C85.06,346.26 103.73,346.27 125.29,346.00 C163.51,345.51 164.48,345.45 164.79,343.50 C164.96,342.40 165.50,340.60 165.98,339.50 C166.20,338.98 166.43,337.59 166.65,335.74 C166.24,341.05 165.77,345.57 165.44,346.10 C165.13,346.61 148.46,347.00 127.51,347.00 C95.94,347.00 89.91,347.23 88.67,348.47 C87.41,349.74 87.03,349.75 86.03,348.53 C85.38,347.76 83.87,346.98 82.68,346.81 C80.69,346.53 80.47,345.84 80.21,338.92 L 79.92 331.34 L 84.21 330.07 C86.57,329.37 89.06,328.33 89.75,327.77 C92.39,325.63 90.70,309.00 87.85,309.00 C86.74,309.00 74.73,316.73 66.84,322.53 C58.46,328.68 49.13,338.50 45.88,344.60 C44.15,347.83 43.02,351.92 42.57,356.51 C42.06,361.70 41.97,363.09 43.28,364.88 C39.01,360.05 36.28,353.80 34.48,345.33 C30.92,328.51 33.91,314.13 44.03,299.50 C45.69,297.09 46.40,295.55 46.86,291.88 L 46.75 293.50 L 46.79 293.46 L 46.67 295.48 L 53.58 289.12 C57.39,285.63 64.78,279.96 70.00,276.53 C75.22,273.10 81.41,269.24 83.75,267.96 C86.09,266.68 88.00,265.08 88.00,264.41 C88.00,263.74 85.97,262.00 83.50,260.55 L 79.00 257.92 L 79.00 252.08 C79.00,248.60 79.51,245.82 80.26,245.20 C81.06,244.53 93.41,244.01 114.01,243.77 C146.52,243.39 151.59,242.89 162.50,238.99 C164.55,238.26 168.05,237.23 176.00,235.02 C178.48,234.33 181.62,233.42 183.00,233.00 C184.38,232.58 187.52,231.68 190.00,231.00 C192.48,230.32 195.62,229.40 197.00,228.96 C198.38,228.51 201.98,227.61 205.00,226.95 C208.02,226.29 211.62,225.38 213.00,224.92 C214.38,224.47 218.65,223.39 222.50,222.53 C226.35,221.66 230.85,220.56 232.50,220.07 C234.15,219.58 237.98,218.66 241.00,218.02 C244.02,217.37 247.88,216.43 249.57,215.92 C251.26,215.42 253.82,215.00 255.26,215.00 C256.70,215.00 258.13,214.60 258.43,214.11 C258.74,213.61 260.68,212.98 262.74,212.69 C264.81,212.40 268.30,211.70 270.50,211.13 C272.70,210.56 275.85,209.81 277.50,209.47 C279.15,209.13 281.40,208.46 282.50,207.99 C283.60,207.52 285.85,206.91 287.50,206.63 C289.15,206.36 292.52,205.67 295.00,205.10 C305.80,202.64 313.78,200.79 317.50,199.87 C319.70,199.33 323.30,198.49 325.50,198.00 C327.70,197.51 331.52,196.60 334.00,195.97 C336.48,195.35 340.19,194.60 342.26,194.31 C344.32,194.02 346.26,193.39 346.57,192.89 C346.87,192.40 348.45,192.00 350.07,192.00 C351.70,192.00 353.81,191.60 354.76,191.12 C356.46,190.26 372.45,186.12 384.50,183.41 C387.80,182.67 395.23,180.66 401.00,178.93 C406.77,177.20 412.74,175.56 414.26,175.28 C415.78,175.00 417.27,174.37 417.57,173.88 C417.87,173.40 418.93,173.00 419.93,173.00 C421.48,173.00 424.92,171.82 434.50,167.99 C435.60,167.55 438.52,166.44 441.00,165.52 C447.08,163.28 463.05,154.72 469.92,150.04 C476.53,145.52 479.28,142.51 480.82,138.09 C481.78,135.34 481.64,134.22 479.98,130.95 C479.21,129.46 478.56,128.47 477.65,127.70 C481.54,129.71 485.06,132.47 488.71,136.27 C500.27,148.32 503.22,159.34 497.62,169.61 L 494.84 174.71 L 499.79 184.61 C499.93,184.89 500.07,185.19 500.22,185.49 C497.99,181.05 496.15,177.79 495.22,176.73 C493.73,175.05 493.57,175.06 491.58,176.90 C490.44,177.96 484.90,181.74 479.29,185.29 C469.06,191.76 458.73,196.38 447.50,199.51 C444.20,200.43 440.39,201.63 439.03,202.17 C437.68,202.71 432.50,204.27 427.53,205.63 C413.99,209.35 408.08,210.97 402.00,212.63 C393.75,214.88 370.06,220.94 365.50,221.97 C363.30,222.47 359.70,223.38 357.50,224.01 C355.30,224.64 351.70,225.52 349.50,225.96 C347.30,226.41 338.98,228.38 331.00,230.35 C323.02,232.31 313.12,234.65 309.00,235.55 C296.44,238.27 290.72,240.12 291.74,241.14 C292.25,241.65 301.05,242.35 311.28,242.69 C321.51,243.03 330.31,243.58 330.84,243.91 C331.36,244.23 332.11,247.46 332.49,251.08 C333.27,258.35 331.97,261.00 327.65,261.00 C326.44,261.00 324.44,261.70 323.22,262.56 C321.15,264.01 321.00,264.87 321.00,275.50 C321.00,282.88 321.40,287.13 322.13,287.58 C323.34,288.33 346.45,264.82 347.52,261.75 C347.88,260.74 347.27,258.78 346.07,257.09 C343.39,253.33 343.36,247.64 346.00,245.00 C347.83,243.17 349.33,243.00 363.88,243.00 C375.36,243.00 380.04,243.35 380.78,244.25 C381.35,244.94 382.12,247.54 382.49,250.03 L 383.16 254.56 L 366.08 272.77 C356.69,282.79 349.00,291.37 349.00,291.85 C349.00,292.72 373.40,324.58 377.26,328.75 C379.91,331.60 382.87,331.58 391.00,328.66 L 397.50 326.33 L 401.65 316.91 C405.18,308.90 414.87,285.67 428.01,253.71 C429.78,249.43 431.88,245.27 432.68,244.46 C433.59,243.55 436.12,243.00 439.39,243.00 C442.27,243.00 447.21,242.52 450.35,241.94 C453.49,241.36 456.84,241.13 457.78,241.44 C458.96,241.81 462.29,249.50 468.43,266.04 C473.34,279.27 477.91,290.86 478.58,291.78 C479.73,293.35 480.05,293.34 483.55,291.68 C486.96,290.05 503.50,279.22 513.68,271.95 C519.69,267.65 529.26,256.88 532.35,250.93 C534.48,246.81 535.00,244.44 535.00,238.78 C535.00,231.94 534.89,231.63 531.25,228.19 C530.93,227.89 530.55,227.57 530.13,227.23 C529.92,227.04 529.70,226.85 529.48,226.67 C536.42,231.97 540.18,239.24 542.55,250.95 C545.70,266.50 542.05,283.50 532.89,295.95 C531.46,297.89 530.77,301.48 530.01,311.00 C529.86,312.87 529.70,314.73 529.52,316.57 C529.75,313.48 529.86,310.63 529.81,308.73 ZM 177.46 343.70 L 178.05 346.04 L 200.77 345.77 L 223.50 345.50 L 223.79 339.99 L 224.09 334.47 L 219.02 331.51 C212.76,327.86 211.75,325.05 212.19,312.51 C212.62,300.21 213.73,300.22 223.12,312.70 C227.18,318.09 230.73,322.73 231.00,323.00 C231.27,323.27 235.32,328.56 239.98,334.75 L 248.46 346.00 L 277.00 346.00 L 277.00 343.42 C277.00,340.70 276.35,339.78 253.79,310.75 C246.21,300.99 240.00,292.49 240.00,291.87 C240.00,291.25 245.29,285.10 251.75,278.21 C273.88,254.62 274.00,254.47 274.00,249.50 C274.00,246.14 273.53,244.82 272.07,244.04 C270.97,243.45 263.42,243.00 254.69,243.00 C237.63,243.00 237.35,243.10 236.32,249.40 C235.86,252.27 236.26,253.65 238.37,256.42 C239.82,258.32 241.00,260.40 241.00,261.06 C241.00,262.33 238.97,264.71 224.63,280.25 C219.68,285.61 215.05,290.00 214.34,290.00 C213.62,290.00 212.75,288.84 212.39,287.42 C211.64,284.42 212.44,266.27 213.43,263.89 C213.80,263.01 215.99,261.72 218.30,261.04 C224.43,259.22 225.00,258.45 225.00,251.95 C225.00,251.75 225.00,251.55 225.00,251.36 C225.00,248.58 225.01,246.73 224.13,245.49 C222.38,243.00 217.08,243.00 201.14,243.00 C200.59,243.00 200.03,243.00 199.46,243.00 C198.36,243.00 197.31,243.00 196.30,243.00 C182.26,242.99 177.45,242.98 175.82,245.26 C174.97,246.45 174.99,248.25 175.01,251.00 C175.01,251.38 175.01,251.77 175.02,252.18 C175.03,258.40 175.43,259.17 179.73,261.38 C185.88,264.53 186.06,265.64 185.76,299.20 L 185.50 329.44 L 181.50 330.55 C177.61,331.64 177.49,331.80 177.19,336.52 C177.02,339.19 177.14,342.42 177.46,343.70 ZM 305.00 346.06 C315.73,346.36 326.08,346.59 328.00,346.56 L 331.50 346.50 L 331.79 340.48 L 332.08 334.46 L 326.83 331.46 C320.66,327.94 320.24,326.86 320.10,314.45 C320.01,306.02 320.80,303.00 323.12,303.00 C323.52,303.00 326.07,306.04 328.80,309.75 C331.52,313.46 337.63,321.60 342.38,327.84 C347.12,334.08 351.00,339.75 351.00,340.44 C351.00,341.13 352.04,342.90 353.31,344.37 L 355.61 347.06 L 370.56 346.78 L 385.50 346.50 L 385.80 342.85 C386.07,339.65 385.52,338.61 381.29,334.35 C372.98,325.98 347.98,293.99 348.03,291.79 C348.06,290.50 350.08,288.21 369.85,267.15 C375.71,260.91 380.88,255.14 381.33,254.34 C381.79,253.53 381.78,251.22 381.30,249.19 L 380.42 245.50 L 346.58 245.50 L 345.67 249.34 C344.90,252.58 345.09,253.63 346.88,256.05 C348.05,257.63 349.00,259.67 349.00,260.59 C349.00,261.51 345.06,266.52 340.25,271.72 C335.44,276.92 329.70,283.17 327.50,285.60 C320.79,293.03 320.00,291.91 320.00,274.98 C320.00,274.60 320.00,274.23 320.00,273.87 C320.00,266.94 319.99,264.17 321.37,262.60 C322.36,261.47 324.06,260.97 326.99,259.99 L 331.50 258.48 L 331.32 252.14 C331.22,248.66 330.99,245.68 330.82,245.52 C330.64,245.36 320.15,245.07 307.50,244.87 L 284.50 244.50 L 284.20 250.71 L 283.91 256.92 L 288.20 260.03 C290.57,261.74 292.89,263.85 293.38,264.71 C294.19,266.17 294.33,328.00 293.52,328.82 C293.31,329.02 291.43,329.78 289.32,330.50 L 285.50 331.81 L 285.50 345.50 ZM 392.67 346.33 C393.03,346.70 401.98,347.00 412.54,347.00 C426.70,347.00 432.02,346.67 432.78,345.75 C433.67,344.66 434.52,337.57 434.13,334.37 C434.06,333.75 431.73,332.27 428.95,331.07 C426.17,329.88 423.66,328.27 423.36,327.50 C423.07,326.73 423.65,323.51 424.66,320.34 L 426.50 314.58 L 441.00 314.87 C448.98,315.02 455.94,315.58 456.47,316.10 C457.69,317.28 459.96,324.78 459.98,327.67 C460.00,329.33 459.01,330.17 455.75,331.26 C451.51,332.69 451.50,332.71 451.54,337.60 C451.54,338.10 451.54,338.57 451.54,339.01 C451.54,341.42 451.53,343.00 452.28,344.04 C453.72,346.03 457.91,346.02 470.11,346.00 C471.28,346.00 472.53,346.00 473.86,346.00 C474.74,346.00 475.59,346.00 476.40,346.00 C490.03,346.01 494.20,346.01 495.46,344.10 C496.02,343.25 496.01,342.04 496.00,340.29 C496.00,340.06 496.00,339.81 496.00,339.55 C496.00,337.75 495.20,335.20 494.21,333.88 C493.23,332.57 491.87,329.31 491.19,326.64 C490.51,323.96 489.00,319.69 487.83,317.14 C486.67,314.59 484.63,309.59 483.29,306.04 C481.96,302.49 479.50,296.64 477.83,293.04 C473.69,284.10 474.89,287.19 463.82,257.00 C459.42,245.00 458.31,242.50 457.43,242.55 C456.92,242.58 451.41,242.97 445.19,243.43 C431.98,244.40 433.09,243.47 427.20,258.50 C425.04,264.00 419.22,278.17 414.27,290.00 C409.31,301.83 404.41,313.91 403.38,316.85 C402.35,319.79 399.36,324.85 396.75,328.10 C392.30,333.63 392.00,334.38 392.00,339.84 C392.00,343.04 392.30,345.97 392.67,346.33 ZM 358.69 531.98 C359.09,531.18 359.56,530.51 360.27,529.86 C359.45,530.65 358.98,531.50 358.51,532.64 C357.01,536.23 348.98,540.84 337.25,544.86 C327.76,548.11 326.26,547.84 323.90,542.50 C323.01,540.49 322.03,539.04 321.16,538.39 C321.64,538.52 321.98,538.71 322.27,538.97 C322.79,539.42 323.12,540.09 323.66,541.00 C325.90,544.80 326.33,544.78 325.49,540.94 C322.02,525.16 298.27,508.14 263.50,496.52 C246.47,490.82 236.41,488.99 218.47,488.32 C197.29,487.53 184.17,489.82 168.28,497.10 C164.80,498.69 161.55,500.00 161.05,500.00 C160.56,500.00 158.77,501.17 157.08,502.59 C153.74,505.40 152.97,509.39 155.58,510.39 C157.98,511.31 164.09,511.12 167.99,510.00 C158.40,512.75 150.59,510.42 141.71,502.16 C136.25,497.07 134.00,492.87 134.00,487.75 C134.00,486.32 133.71,485.18 132.73,483.74 C133.52,484.78 134.00,485.58 134.00,485.93 C134.00,486.83 135.68,485.77 138.25,483.25 C144.41,477.22 153.55,473.36 169.50,470.04 C171.70,469.58 174.85,468.82 176.50,468.34 C180.30,467.25 211.22,467.26 220.50,468.35 C224.35,468.81 229.61,469.84 232.18,470.65 C234.76,471.46 237.46,472.02 238.18,471.90 C238.91,471.77 240.62,471.95 242.00,472.30 C243.38,472.64 246.52,473.10 249.00,473.33 C255.91,473.97 267.59,477.55 289.50,485.73 C306.93,492.24 326.11,503.05 339.34,513.81 C345.91,519.16 352.92,527.97 354.44,532.81 C355.31,535.56 357.06,535.22 358.69,531.98 ZM 448.73 116.28 C448.20,115.76 447.64,115.19 447.04,114.59 L 441.59 109.02 L 439.04 111.44 C436.03,114.30 425.94,120.02 421.00,121.67 C417.47,122.85 410.06,124.54 395.72,127.43 C391.44,128.29 384.69,128.98 380.72,128.95 C372.52,128.89 346.27,126.49 338.00,125.04 C334.98,124.51 329.80,123.64 326.50,123.12 C307.53,120.10 292.59,115.26 267.00,103.84 C257.10,99.42 238.29,87.29 231.63,81.04 C224.42,74.26 219.00,66.89 219.00,63.86 C219.00,60.59 216.96,60.85 215.52,64.30 C214.29,67.24 213.18,68.06 204.89,71.39 C213.77,67.66 214.53,66.92 215.50,64.00 C216.91,59.81 219.74,58.02 231.34,54.00 C242.73,50.05 244.91,50.11 247.71,54.44 C250.19,58.27 252.56,58.90 260.50,57.82 C263.93,57.36 271.09,57.12 279.38,57.07 C270.96,57.18 263.45,57.52 259.13,58.10 C258.85,58.14 258.58,58.18 258.31,58.21 C256.91,58.34 255.64,58.48 254.51,58.63 C251.60,58.86 250.28,58.64 249.47,57.98 C248.26,56.97 248.00,57.11 248.00,58.76 C248.00,66.52 262.57,79.81 280.50,88.39 C300.05,97.75 311.79,101.62 331.00,105.05 C334.58,105.69 339.08,106.57 341.00,107.00 C347.26,108.42 373.97,108.05 381.00,106.45 C384.58,105.64 390.20,104.47 393.50,103.85 C400.09,102.61 418.71,94.09 421.45,91.06 C425.38,86.71 421.46,84.09 413.89,85.58 C413.31,85.68 412.71,85.81 412.08,85.98 C411.72,86.08 411.39,86.16 411.06,86.22 C411.01,86.23 410.96,86.24 410.90,86.25 C411.22,86.19 411.54,86.11 411.88,86.02 C417.61,84.43 421.12,84.84 426.65,87.77 C436.53,93.01 442.99,100.57 443.00,106.91 C443.00,109.73 444.00,111.32 448.76,116.08 C450.83,118.15 453.12,120.06 454.85,121.21 C453.81,120.64 452.78,119.91 451.65,118.96 C451.22,118.59 450.78,118.19 450.33,117.76 C449.76,117.22 449.23,116.72 448.73,116.28 ZM 412.99 513.11 C422.52,513.48 436.18,513.09 437.36,512.18 C437.99,511.69 440.74,510.74 443.49,510.07 C446.23,509.40 449.07,508.36 449.79,507.76 C451.58,506.27 454.00,500.30 454.00,497.37 C454.00,490.02 444.12,477.82 429.25,466.82 C424.16,463.06 420.00,459.50 420.00,458.90 C420.00,457.33 429.03,447.00 430.40,447.00 C432.32,447.00 449.10,458.35 455.31,463.85 C461.42,469.27 463.00,470.01 463.00,467.43 C463.00,466.02 464.92,463.29 471.75,455.19 C465.82,462.63 464.00,465.36 464.00,466.48 C464.00,467.29 464.90,469.43 466.00,471.23 C468.99,476.13 468.78,486.54 465.56,492.89 C462.38,499.16 454.17,506.51 446.00,510.40 C439.70,513.40 439.08,513.50 426.00,513.45 C421.67,513.43 416.89,513.30 412.99,513.11 ZM 129.65 88.93 C127.52,89.92 125.84,91.00 124.71,92.13 C121.92,94.92 121.77,95.47 122.31,100.72 C123.26,109.92 132.05,120.70 145.98,129.73 C154.38,135.18 155.00,135.74 154.99,137.79 C154.98,140.18 147.21,149.00 145.11,149.00 C142.20,149.00 125.91,137.48 118.75,130.37 C115.04,126.68 111.79,123.88 111.52,124.15 C111.25,124.41 111.56,126.01 112.19,127.70 C112.23,127.81 112.28,127.92 112.31,128.03 C112.10,127.70 111.83,127.36 111.50,127.00 C109.29,124.56 108.08,116.60 109.18,111.69 C111.37,101.89 118.93,93.57 129.65,88.93 ZM 346.61 341.34 C347.98,340.44 348.89,339.16 348.64,338.49 C347.44,335.39 323.60,304.97 322.62,305.29 C320.98,305.83 320.67,322.88 322.25,325.94 C322.94,327.28 325.52,329.55 328.00,331.00 C332.35,333.53 332.51,333.80 332.81,338.94 L 333.11 344.26 L 338.62 343.62 C341.64,343.26 345.24,342.23 346.61,341.34 ZM 238.72 263.18 C240.25,260.97 240.18,260.72 237.28,257.81 C234.42,254.95 234.02,254.84 230.70,255.93 C228.75,256.58 226.48,258.15 225.64,259.43 C224.70,260.86 222.65,262.03 220.31,262.47 C218.21,262.86 215.94,263.64 215.25,264.21 C213.87,265.36 213.42,286.07 214.75,287.44 C215.47,288.18 235.36,268.04 238.72,263.18 ZM 450.88 297.64 C449.35,299.49 436.06,299.49 433.53,297.65 C431.76,296.35 431.84,295.82 435.52,284.40 C439.45,272.21 441.00,269.26 442.88,270.43 C443.47,270.79 445.77,276.76 447.98,283.69 C451.05,293.29 451.74,296.61 450.88,297.64 ZM 450.22 296.83 C450.58,295.77 446.20,280.69 443.93,275.17 C443.40,273.89 442.46,273.01 441.85,273.22 C440.33,273.72 433.00,294.39 433.85,295.76 C435.02,297.66 449.63,298.61 450.22,296.83 ZM 200.04 201.55 C198.15,199.27 199.20,196.54 202.09,196.20 C205.54,195.80 207.52,198.17 206.03,200.94 C204.75,203.33 201.77,203.64 200.04,201.55 ZM 439.00 489.15 C439.00,488.00 442.41,485.00 443.72,485.00 C445.33,485.00 446.00,487.60 444.72,488.88 C443.42,490.18 439.00,490.40 439.00,489.15 ZM 130.67 111.33 C128.85,109.52 130.21,108.00 133.65,108.00 C137.25,108.00 137.28,108.03 135.50,110.00 C133.66,112.04 131.86,112.53 130.67,111.33 ZM 201.00 199.58 C201.00,201.35 203.15,201.04 203.77,199.19 C203.99,198.53 203.45,198.00 202.58,198.00 C201.71,198.00 201.00,198.71 201.00,199.58 ZM 411.00 144.00 C411.00,143.45 411.45,143.00 412.00,143.00 C412.55,143.00 413.00,143.45 413.00,144.00 C413.00,144.55 412.55,145.00 412.00,145.00 C411.45,145.00 411.00,144.55 411.00,144.00 ZM 487.00 379.00 C487.00,378.45 487.45,378.00 488.00,378.00 C488.55,378.00 489.00,378.45 489.00,379.00 C489.00,379.55 488.55,380.00 488.00,380.00 C487.45,380.00 487.00,379.55 487.00,379.00 ZM 493.41 425.80 C497.09,420.03 500.46,414.23 503.55,408.35 C501.01,413.41 498.61,417.81 496.86,420.50 C495.63,422.40 494.48,424.16 493.41,425.80 ZM 156.02 85.21 C145.90,84.88 142.48,84.97 138.24,86.02 C142.65,84.85 145.83,84.84 156.77,85.19 ZM 173.64 85.73 L 173.50 85.80 L 167.92 85.61 L 165.73 85.47 ZM 112.72 130.56 C112.50,131.66 111.59,132.83 109.63,135.13 C102.98,142.95 96.82,150.98 91.18,159.19 C91.12,159.28 91.05,159.38 90.99,159.47 C96.64,151.22 102.80,143.16 109.46,135.33 C111.30,133.16 112.35,131.72 112.72,130.56 ZM 460.30 123.00 C459.51,122.86 458.78,122.71 458.09,122.52 C458.81,122.65 459.73,122.82 460.75,123.00 C460.62,123.00 460.49,123.00 460.36,123.00 C460.34,123.00 460.32,123.00 460.30,123.00 ZM 121.76 473.46 C120.21,472.78 118.40,472.48 115.33,472.05 C113.73,471.82 112.24,471.57 110.83,471.30 L 110.88 471.31 C112.29,471.56 113.83,471.81 115.50,472.05 C118.46,472.48 120.23,472.78 121.76,473.46 ZM 373.88 523.68 C374.15,523.57 374.42,523.46 374.69,523.35 C379.19,521.59 385.84,518.73 390.57,516.51 C385.45,518.92 378.19,522.03 373.88,523.68 ZM 316.43 538.23 C313.60,538.44 309.52,538.77 305.25,539.13 C306.05,539.06 306.81,539.00 307.54,538.94 C311.49,538.59 314.34,538.35 316.43,538.23 ZM 520.31 366.85 C518.85,371.94 517.24,376.86 515.49,381.62 C516.95,377.66 518.32,373.52 519.59,369.25 C519.84,368.45 520.08,367.65 520.31,366.85 ZM 408.73 86.33 C408.61,86.32 408.48,86.30 408.35,86.28 C405.88,85.86 402.09,84.17 392.88,79.90 C402.52,84.37 406.27,86.02 408.73,86.33 ZM 73.02 399.93 C71.43,396.61 69.91,393.34 68.89,390.99 C69.76,392.98 70.96,395.58 72.29,398.37 L 72.29 398.37 C72.53,398.89 72.77,399.41 73.02,399.93 ZM 185.21 79.97 C184.42,80.35 183.68,80.71 183.00,81.05 L 180.78 82.16 C181.86,81.58 183.39,80.83 185.21,79.97 ZM 525.49 224.06 C525.11,223.83 524.72,223.60 524.34,223.39 C525.14,223.82 525.92,224.27 526.66,224.73 C526.29,224.51 525.90,224.28 525.49,224.06 ZM 165.94 316.42 C164.99,316.16 163.59,316.01 161.86,316.00 C163.68,316.01 165.03,316.15 165.94,316.42 ZM 52.08 248.93 C52.74,245.43 53.42,242.26 54.08,239.68 C53.44,242.19 52.77,245.31 52.11,248.76 ZM 365.81 526.78 C366.00,526.70 366.20,526.62 366.40,526.53 L 366.47 526.51 C366.24,526.60 366.02,526.69 365.81,526.78 Z" fill="rgb(211,161,196)"/>
<path d="M 0.00 290.50 L 0.00 0.00 L 289.00 0.00 L 578.00 0.00 L 578.00 290.50 L 578.00 581.00 L 289.00 581.00 L 0.00 581.00 L 0.00 290.50 ZM 337.25 544.86 C348.98,540.84 357.01,536.23 358.51,532.64 C359.96,529.15 361.35,528.33 373.07,523.99 C377.24,522.44 385.11,519.08 390.57,516.51 C400.15,511.99 400.71,511.86 406.50,512.61 C409.80,513.05 418.58,513.42 426.00,513.45 C439.08,513.50 439.70,513.40 446.00,510.40 C454.17,506.51 462.38,499.16 465.56,492.89 C468.78,486.54 468.99,476.13 466.00,471.23 C464.90,469.43 464.00,467.29 464.00,466.48 C464.00,465.03 467.05,460.89 478.11,447.34 C483.19,441.10 487.51,434.92 496.86,420.50 C501.63,413.14 511.31,392.94 515.48,381.64 C523.03,361.15 527.89,337.55 530.01,311.00 C530.77,301.48 531.46,297.89 532.89,295.95 C542.05,283.50 545.70,266.50 542.55,250.95 C539.39,235.36 533.78,227.64 521.47,221.96 C517.89,220.31 514.98,218.22 514.33,216.84 C513.72,215.55 511.32,210.00 508.98,204.50 C506.64,199.00 502.51,190.05 499.79,184.61 L 494.84 174.71 L 497.62 169.61 C503.22,159.34 500.27,148.32 488.71,136.27 C481.81,129.09 475.42,125.62 466.00,123.95 C462.42,123.31 458.38,122.58 457.01,122.32 C455.64,122.06 451.93,119.25 448.76,116.08 C444.00,111.32 443.00,109.73 443.00,106.91 C442.99,100.57 436.53,93.01 426.65,87.77 C421.12,84.84 417.61,84.43 411.88,86.02 C408.51,86.95 407.14,86.51 392.88,79.90 C367.94,68.35 347.80,62.44 320.00,58.52 C309.06,56.97 270.12,56.52 260.50,57.82 C252.56,58.90 250.19,58.27 247.71,54.44 C244.91,50.11 242.73,50.05 231.34,54.00 C219.74,58.02 216.91,59.81 215.50,64.00 C214.40,67.30 213.57,67.81 200.92,73.04 C193.54,76.08 184.48,80.19 180.78,82.16 L 174.06 85.74 L 158.01 85.23 C142.58,84.73 141.66,84.82 133.64,87.43 C120.82,91.60 111.63,100.71 109.18,111.69 C108.08,116.60 109.29,124.56 111.50,127.00 C113.70,129.43 113.39,130.71 109.46,135.33 C82.37,167.20 63.48,202.79 54.08,239.68 C51.30,250.60 48.13,272.06 47.39,285.00 C46.86,294.31 46.48,295.95 44.03,299.50 C33.91,314.13 30.92,328.51 34.48,345.33 C37.61,360.08 43.57,368.08 55.55,373.62 C63.57,377.33 63.13,376.77 68.04,389.00 C69.26,392.02 72.61,399.23 75.50,405.00 C82.40,418.81 82.73,420.52 79.55,426.08 C76.74,431.00 76.17,438.24 78.14,444.10 C80.03,449.71 87.77,459.77 93.38,463.91 C99.54,468.46 105.42,470.64 115.33,472.05 C122.21,473.02 122.74,473.29 128.25,478.75 C132.95,483.40 134.00,485.04 134.00,487.75 C134.00,492.87 136.25,497.07 141.71,502.16 C150.59,510.42 158.40,512.75 167.99,510.00 C171.17,509.09 172.60,509.55 184.98,515.42 C202.81,523.88 204.10,524.38 219.93,529.06 C248.43,537.49 280.45,541.27 305.25,539.13 C312.54,538.51 319.27,538.00 320.20,538.00 C321.26,538.00 322.66,539.71 323.90,542.50 C326.26,547.84 327.76,548.11 337.25,544.86 ZM 243.39 517.57 C242.02,514.00 244.72,511.90 248.00,513.99 C249.16,514.73 249.25,515.35 248.39,516.72 C246.93,519.07 244.15,519.55 243.39,517.57 ZM 313.02 456.53 C311.12,454.23 312.20,451.50 315.01,451.50 C316.81,451.50 317.59,452.11 317.81,453.68 C318.22,456.55 314.75,458.61 313.02,456.53 ZM 138.15 455.11 C136.30,453.94 137.12,450.60 139.37,450.17 C141.90,449.68 143.33,451.37 142.53,453.90 C141.83,456.12 140.38,456.52 138.15,455.11 ZM 415.04 389.55 C413.12,387.24 414.19,384.50 417.00,384.50 C418.58,384.50 419.60,385.15 419.82,386.30 C420.17,388.10 418.42,391.00 417.00,391.00 C416.58,391.00 415.70,390.35 415.04,389.55 ZM 83.80 345.96 C81.72,345.47 81.47,344.77 81.21,338.74 C80.91,332.16 80.95,332.05 83.71,331.39 C85.24,331.02 87.80,330.06 89.39,329.26 L 92.29 327.80 L 91.45 316.15 C90.69,305.68 90.33,293.76 90.08,270.85 L 90.00 263.19 L 85.45 260.53 L 80.91 257.86 L 81.20 251.68 L 81.50 245.50 L 115.50 244.70 C156.72,243.72 162.15,243.75 163.29,244.89 C163.78,245.38 164.43,252.02 164.73,259.65 C165.35,275.31 165.36,275.29 158.09,276.40 C153.76,277.06 153.61,276.99 148.84,271.83 C146.18,268.95 144.00,266.28 144.00,265.89 C144.00,263.65 124.19,261.87 121.17,263.84 C119.33,265.05 118.62,271.63 119.47,279.59 L 120.19 286.30 L 135.60 285.64 L 151.00 284.97 L 151.00 295.62 L 151.00 306.27 L 141.75 305.62 C136.66,305.26 129.48,304.70 125.80,304.37 C119.36,303.80 119.07,303.87 118.51,306.14 C118.18,307.44 118.05,313.00 118.21,318.50 L 118.50 328.50 L 130.11 328.78 C141.58,329.06 141.75,329.03 143.39,326.53 C144.30,325.14 145.84,324.00 146.82,324.00 C147.80,324.00 150.35,322.20 152.50,320.00 C156.07,316.34 156.85,316.00 161.62,316.00 C164.88,316.00 167.00,316.47 167.29,317.25 C168.01,319.23 166.94,337.29 165.98,339.50 C165.50,340.60 164.96,342.40 164.79,343.50 C164.48,345.45 163.51,345.51 125.29,346.00 C103.73,346.27 85.06,346.26 83.80,345.96 ZM 305.00 346.06 L 285.50 345.50 L 285.50 338.66 L 285.50 331.81 L 289.32 330.50 C291.43,329.78 293.31,329.02 293.52,328.82 C294.33,328.00 294.19,266.17 293.38,264.71 C292.89,263.85 290.57,261.74 288.20,260.03 L 283.91 256.92 L 284.20 250.71 L 284.50 244.50 L 307.50 244.87 C320.15,245.07 330.64,245.36 330.82,245.52 C330.99,245.68 331.22,248.66 331.32,252.14 L 331.50 258.48 L 326.99 259.99 C319.78,262.40 320.00,261.93 320.00,274.98 C320.00,291.91 320.79,293.03 327.50,285.60 C329.70,283.17 335.44,276.92 340.25,271.72 C345.06,266.52 349.00,261.51 349.00,260.59 C349.00,259.67 348.05,257.63 346.88,256.05 C345.09,253.63 344.90,252.58 345.67,249.34 L 346.58 245.50 L 363.50 245.50 L 380.42 245.50 L 381.30 249.19 C381.78,251.22 381.79,253.53 381.33,254.34 C380.88,255.14 375.71,260.91 369.85,267.15 C350.08,288.21 348.06,290.50 348.03,291.79 C347.98,293.99 372.98,325.98 381.29,334.35 C385.52,338.61 386.07,339.65 385.80,342.85 L 385.50 346.50 L 370.56 346.78 L 355.61 347.06 L 353.31 344.37 C352.04,342.90 351.00,341.13 351.00,340.44 C351.00,339.75 347.12,334.08 342.38,327.84 C337.63,321.60 331.52,313.46 328.80,309.75 C326.07,306.04 323.52,303.00 323.12,303.00 C320.80,303.00 320.01,306.02 320.10,314.45 C320.24,326.86 320.66,327.94 326.83,331.46 L 332.08 334.46 L 331.79 340.48 L 331.50 346.50 L 328.00 346.56 C326.08,346.59 315.73,346.36 305.00,346.06 ZM 392.67 346.33 C392.30,345.97 392.00,343.04 392.00,339.84 C392.00,334.38 392.30,333.63 396.75,328.10 C399.36,324.85 402.35,319.79 403.38,316.85 C404.41,313.91 409.31,301.83 414.27,290.00 C419.22,278.17 425.04,264.00 427.20,258.50 C433.09,243.47 431.98,244.40 445.19,243.43 C451.41,242.97 456.92,242.58 457.43,242.55 C458.31,242.50 459.42,245.00 463.82,257.00 C474.89,287.19 473.69,284.10 477.83,293.04 C479.50,296.64 481.96,302.49 483.29,306.04 C484.63,309.59 486.67,314.59 487.83,317.14 C489.00,319.69 490.51,323.96 491.19,326.64 C491.87,329.31 493.23,332.57 494.21,333.88 C495.20,335.20 496.00,337.75 496.00,339.55 C496.00,346.27 496.91,346.00 473.86,346.00 C450.20,346.00 451.61,346.53 451.54,337.60 C451.50,332.71 451.51,332.69 455.75,331.26 C459.01,330.17 460.00,329.33 459.98,327.67 C459.96,324.78 457.69,317.28 456.47,316.10 C455.94,315.58 448.98,315.02 441.00,314.87 L 426.50 314.58 L 424.66 320.34 C423.65,323.51 423.07,326.73 423.36,327.50 C423.66,328.27 426.17,329.88 428.95,331.07 C431.73,332.27 434.06,333.75 434.13,334.37 C434.52,337.57 433.67,344.66 432.78,345.75 C432.02,346.67 426.70,347.00 412.54,347.00 C401.98,347.00 393.03,346.70 392.67,346.33 ZM 450.88 297.64 C451.74,296.61 451.05,293.29 447.98,283.69 C445.77,276.76 443.47,270.79 442.88,270.43 C441.00,269.26 439.45,272.21 435.52,284.40 C431.84,295.82 431.76,296.35 433.53,297.65 C436.06,299.49 449.35,299.49 450.88,297.64 ZM 177.46 343.70 C177.14,342.42 177.02,339.19 177.19,336.52 C177.49,331.80 177.61,331.64 181.50,330.55 L 185.50 329.44 L 185.76 299.20 C186.06,265.64 185.88,264.53 179.73,261.38 C175.43,259.17 175.03,258.40 175.02,252.18 C174.99,242.57 173.84,243.00 199.46,243.00 C225.58,243.00 225.00,242.80 225.00,251.95 C225.00,258.45 224.43,259.22 218.30,261.04 C215.99,261.72 213.80,263.01 213.43,263.89 C212.44,266.27 211.64,284.42 212.39,287.42 C212.75,288.84 213.62,290.00 214.34,290.00 C215.05,290.00 219.68,285.61 224.63,280.25 C238.97,264.71 241.00,262.33 241.00,261.06 C241.00,260.40 239.82,258.32 238.37,256.42 C236.26,253.65 235.86,252.27 236.32,249.40 C237.35,243.10 237.63,243.00 254.69,243.00 C263.42,243.00 270.97,243.45 272.07,244.04 C273.53,244.82 274.00,246.14 274.00,249.50 C274.00,254.47 273.88,254.62 251.75,278.21 C245.29,285.10 240.00,291.25 240.00,291.87 C240.00,292.49 246.21,300.99 253.79,310.75 C276.35,339.78 277.00,340.70 277.00,343.42 L 277.00 346.00 L 262.73 346.00 L 248.46 346.00 L 239.98 334.75 C235.32,328.56 231.27,323.27 231.00,323.00 C230.73,322.73 227.18,318.09 223.12,312.70 C213.73,300.22 212.62,300.21 212.19,312.51 C211.75,325.05 212.76,327.86 219.02,331.51 L 224.09 334.47 L 223.79 339.99 L 223.50 345.50 L 200.77 345.77 L 178.05 346.04 L 177.46 343.70 ZM 455.67 236.33 C455.30,235.97 455.00,234.84 455.00,233.83 C455.00,232.54 455.74,232.00 457.50,232.00 C460.16,232.00 460.78,233.82 458.80,235.80 C457.44,237.16 456.63,237.30 455.67,236.33 ZM 113.39 210.57 C112.39,207.98 113.79,205.83 116.25,206.18 C117.90,206.41 118.50,207.17 118.50,209.00 C118.50,210.83 117.90,211.59 116.25,211.82 C114.89,212.01 113.75,211.51 113.39,210.57 ZM 201.00 199.58 C201.00,198.71 201.71,198.00 202.58,198.00 C203.45,198.00 203.99,198.53 203.77,199.19 C203.15,201.04 201.00,201.35 201.00,199.58 ZM 300.67 150.33 C299.14,148.80 300.15,147.00 302.54,147.00 C304.76,147.00 304.94,147.24 304.00,149.00 C302.90,151.06 301.83,151.49 300.67,150.33 ZM 363.41 93.62 C362.55,91.38 363.78,90.00 366.63,90.00 C368.66,90.00 369.08,90.43 368.82,92.25 C368.44,94.93 364.31,95.97 363.41,93.62 Z" fill="rgb(254,254,254)"/>
</g>
</svg>